G04*
G04 #@! TF.GenerationSoftware,Altium Limited,Altium Designer,23.9.2 (47)*
G04*
G04 Layer_Physical_Order=4*
G04 Layer_Color=16711680*
%FSLAX44Y44*%
%MOMM*%
G71*
G04*
G04 #@! TF.SameCoordinates,5FA424B9-A6D8-4F7E-AE3D-71B40F287457*
G04*
G04*
G04 #@! TF.FilePolarity,Positive*
G04*
G01*
G75*
%ADD10C,0.2540*%
%ADD46C,0.3810*%
%ADD48C,1.7780*%
%ADD49C,2.2860*%
%ADD50C,0.6500*%
%ADD51O,1.6000X1.0000*%
%ADD52C,0.4000*%
%ADD53C,1.2700*%
%ADD54R,1.0500X0.6500*%
%ADD55R,0.6500X1.0500*%
D10*
X590550Y713379D02*
G03*
X583111Y731339I-25400J0D01*
G01*
Y642801D02*
G03*
X590550Y660761I-17960J17960D01*
G01*
X550819Y621030D02*
G03*
X568779Y628470I0J25400D01*
G01*
X406400Y623570D02*
G03*
X412532Y621030I6132J6132D01*
G01*
X381000Y659491D02*
G03*
X388439Y641531I25400J0D01*
G01*
X543560Y631190D02*
G03*
X568960Y656590I0J25400D01*
G01*
X545420Y763270D02*
G03*
X520020Y737870I0J-25400D01*
G01*
X424770Y753790D02*
G03*
X402500Y731520I0J-22270D01*
G01*
X474980Y652690D02*
G03*
X498520Y676230I0J23540D01*
G01*
X402500Y678090D02*
G03*
X427900Y652690I25400J0D01*
G01*
X498520Y729410D02*
G03*
X474140Y753790I-24380J0D01*
G01*
X564470Y775290D02*
G03*
X568960Y779780I0J4490D01*
G01*
X441548Y1088485D02*
G03*
X438429Y1092479I-17775J-10662D01*
G01*
X444500Y1077823D02*
G03*
X441548Y1088485I-20727J0D01*
G01*
X429638Y1101271D02*
G03*
X411677Y1108710I-17960J-17960D01*
G01*
X383470Y1116150D02*
G03*
X401431Y1108710I17960J17960D01*
G01*
X578448Y1118272D02*
G03*
X564789Y1123950I-13708J-13708D01*
G01*
X590550Y1095649D02*
G03*
X583111Y1113609I-25400J0D01*
G01*
X564789Y1123950D02*
G03*
X564740Y1123950I-49J-19386D01*
G01*
X560070Y855980D02*
G03*
X562272Y858734I-11274J11274D01*
G01*
X583111Y879572D02*
G03*
X590550Y897532I-17960J17960D01*
G01*
X538119Y844550D02*
G03*
X556079Y851990I0J25400D01*
G01*
X534490Y868860D02*
G03*
X516529Y876300I-17960J-17960D01*
G01*
X458651Y883739D02*
G03*
X476611Y876300I17960J17960D01*
G01*
X526050Y1095666D02*
G03*
X523240Y1102450I-9594J0D01*
G01*
X373991Y1029676D02*
G03*
X381430Y1047636I-17960J17960D01*
G01*
X463541Y902979D02*
G03*
X463550Y902970I15340J15321D01*
G01*
X457200Y918300D02*
G03*
X463541Y902979I21680J0D01*
G01*
X464640Y1072970D02*
G03*
X457200Y1055009I17960J-17960D01*
G01*
X568960Y745490D02*
X583111Y731339D01*
X590550Y660761D02*
Y713379D01*
X568960Y656590D02*
Y726440D01*
X568779Y628470D02*
X583111Y642801D01*
X412532Y621030D02*
X550819D01*
X388439Y641531D02*
X406400Y623570D01*
X381000Y659491D02*
Y690020D01*
X474980Y631190D02*
X543560D01*
X402500Y690020D02*
Y731520D01*
X545420Y763270D02*
X568960D01*
X520020Y729410D02*
Y737870D01*
X402500Y678090D02*
Y690020D01*
X381000D02*
Y731520D01*
X433480Y631190D02*
X474980D01*
X520020Y687910D02*
Y729410D01*
X498520Y687910D02*
Y729410D01*
Y676230D02*
Y687910D01*
X427900Y652690D02*
X433480D01*
X424770Y753790D02*
X431370D01*
X472870D02*
X474140D01*
X431370D02*
X472870D01*
Y775290D02*
X564470D01*
X431370D02*
X472870D01*
X429638Y1101271D02*
X438429Y1092479D01*
X444500Y897890D02*
Y1077823D01*
X401431Y1108710D02*
X411677D01*
X590550Y897532D02*
Y1095649D01*
X578448Y1118272D02*
X583111Y1113609D01*
X523240Y1123950D02*
X564740D01*
X556079Y851990D02*
X560070Y855980D01*
X562272Y858734D02*
X583111Y879572D01*
X520700Y844550D02*
X538119D01*
X534490Y868860D02*
X544830Y858520D01*
X476611Y876300D02*
X516529D01*
X444500Y897890D02*
X458651Y883739D01*
X381430Y1118190D02*
X383470Y1116150D01*
X381430Y1047636D02*
Y1096690D01*
X339930Y1118190D02*
X381430D01*
X523240Y1102450D02*
X564740D01*
X526050Y1029335D02*
Y1095666D01*
X339930Y1096690D02*
X381430D01*
X373650Y1029335D02*
X373991Y1029676D01*
X457200Y918300D02*
Y1055009D01*
X464640Y1072970D02*
X474980Y1083310D01*
D46*
X388620Y485450D02*
G03*
X380146Y488960I-8474J-8474D01*
G01*
X379615Y496960D02*
G03*
X388620Y500690I0J12735D01*
G01*
X359098Y488960D02*
X380146D01*
X359098Y496960D02*
X379615D01*
D48*
X481600Y1089660D02*
D03*
X418100D02*
D03*
X481600Y1038860D02*
D03*
X418100D02*
D03*
X475250Y861060D02*
D03*
X449850D02*
D03*
X424450D02*
D03*
X551450Y988060D02*
D03*
Y962660D02*
D03*
Y937260D02*
D03*
D49*
X526050Y1029335D02*
D03*
Y895985D02*
D03*
X373650D02*
D03*
Y1029335D02*
D03*
D50*
X359098Y488960D02*
D03*
X352097Y484960D02*
D03*
X359098Y480960D02*
D03*
Y472960D02*
D03*
Y464960D02*
D03*
X352098Y476960D02*
D03*
Y468960D02*
D03*
Y516960D02*
D03*
Y508960D02*
D03*
X359098Y520960D02*
D03*
Y512960D02*
D03*
Y504960D02*
D03*
X352098Y500960D02*
D03*
X359098Y496960D02*
D03*
D51*
X347598Y450260D02*
D03*
Y535660D02*
D03*
X300297Y535660D02*
D03*
Y450260D02*
D03*
D52*
X438770Y707360D02*
D03*
X438770Y693360D02*
D03*
Y721360D02*
D03*
X452770Y693360D02*
D03*
Y707360D02*
D03*
X452770Y721360D02*
D03*
X431770Y700360D02*
D03*
Y714360D02*
D03*
X445770Y700360D02*
D03*
Y714360D02*
D03*
X459770Y700360D02*
D03*
Y714360D02*
D03*
D53*
X568960Y745490D02*
D03*
Y726440D02*
D03*
X474980Y609600D02*
D03*
X568960Y763270D02*
D03*
Y779780D02*
D03*
X520700Y844550D02*
D03*
X544830Y858520D02*
D03*
X463550Y902970D02*
D03*
X356870Y830580D02*
D03*
X381000Y439420D02*
D03*
X388620Y467360D02*
D03*
X453390Y511810D02*
D03*
X508000Y589280D02*
D03*
X341630Y566420D02*
D03*
X424180D02*
D03*
X388620Y485450D02*
D03*
Y500690D02*
D03*
D54*
X564740Y1123950D02*
D03*
X523240D02*
D03*
X564740Y1102450D02*
D03*
X523240D02*
D03*
X381430Y1118190D02*
D03*
X339930D02*
D03*
X381430Y1096690D02*
D03*
X339930D02*
D03*
X472870Y775290D02*
D03*
X431370D02*
D03*
X472870Y753790D02*
D03*
X431370D02*
D03*
X433480Y631190D02*
D03*
X474980D02*
D03*
X433480Y652690D02*
D03*
X474980Y652690D02*
D03*
D55*
X520020Y687910D02*
D03*
Y729410D02*
D03*
X498520Y687910D02*
D03*
Y729410D02*
D03*
X381000Y731520D02*
D03*
Y690020D02*
D03*
X402500Y731520D02*
D03*
Y690020D02*
D03*
X520020Y516460D02*
D03*
Y557960D02*
D03*
X498520Y516460D02*
D03*
Y557960D02*
D03*
X381680D02*
D03*
Y516460D02*
D03*
X403180Y557960D02*
D03*
Y516460D02*
D03*
M02*
