G04*
G04 #@! TF.GenerationSoftware,Altium Limited,Altium Designer,23.9.2 (47)*
G04*
G04 Layer_Physical_Order=1*
G04 Layer_Color=255*
%FSLAX44Y44*%
%MOMM*%
G71*
G04*
G04 #@! TF.SameCoordinates,5FA424B9-A6D8-4F7E-AE3D-71B40F287457*
G04*
G04*
G04 #@! TF.FilePolarity,Positive*
G04*
G01*
G75*
%ADD10C,0.2540*%
%ADD15R,0.7000X0.4000*%
%ADD16O,1.2000X0.3000*%
%ADD17O,1.0000X0.2000*%
%ADD18R,0.9000X1.5000*%
%ADD20C,0.2000*%
G04:AMPARAMS|DCode=21|XSize=0.55mm|YSize=0.5mm|CornerRadius=0.0625mm|HoleSize=0mm|Usage=FLASHONLY|Rotation=90.000|XOffset=0mm|YOffset=0mm|HoleType=Round|Shape=RoundedRectangle|*
%AMROUNDEDRECTD21*
21,1,0.5500,0.3750,0,0,90.0*
21,1,0.4250,0.5000,0,0,90.0*
1,1,0.1250,0.1875,0.2125*
1,1,0.1250,0.1875,-0.2125*
1,1,0.1250,-0.1875,-0.2125*
1,1,0.1250,-0.1875,0.2125*
%
%ADD21ROUNDEDRECTD21*%
%ADD22R,0.6000X0.6400*%
%ADD23R,0.8000X0.8000*%
%ADD24R,0.9000X1.0000*%
%ADD25R,0.6400X0.6000*%
%ADD26R,0.9000X0.9000*%
%ADD27R,1.5000X0.9000*%
%ADD45C,0.5080*%
%ADD46C,0.3810*%
G04:AMPARAMS|DCode=47|XSize=0.48mm|YSize=0.48mm|CornerRadius=0.06mm|HoleSize=0mm|Usage=FLASHONLY|Rotation=135.000|XOffset=0mm|YOffset=0mm|HoleType=Round|Shape=RoundedRectangle|*
%AMROUNDEDRECTD47*
21,1,0.4800,0.3600,0,0,135.0*
21,1,0.3600,0.4800,0,0,135.0*
1,1,0.1200,0.0000,0.2546*
1,1,0.1200,0.2546,0.0000*
1,1,0.1200,0.0000,-0.2546*
1,1,0.1200,-0.2546,0.0000*
%
%ADD47ROUNDEDRECTD47*%
%ADD48C,1.7780*%
%ADD49C,2.2860*%
%ADD50C,0.6500*%
%ADD51O,1.6000X1.0000*%
%ADD52C,0.4000*%
%ADD53C,1.2700*%
G36*
X478810Y568060D02*
X479060D01*
X481060Y566060D01*
X481060Y564310D01*
X480810Y564060D01*
X479060D01*
X478810Y564310D01*
Y568060D01*
D02*
G37*
G36*
X487810Y567560D02*
X487060Y567560D01*
X485560Y566060D01*
X485560Y564310D01*
X485810Y564060D01*
X487560D01*
X487810Y564310D01*
Y567560D01*
D02*
G37*
G36*
X478810Y573060D02*
X479560D01*
X481060Y574560D01*
X481060Y576310D01*
X480810Y576560D01*
X479060D01*
X478810Y576310D01*
X478810Y573060D01*
D02*
G37*
G36*
X487810D02*
X487060D01*
X485560Y574560D01*
X485560Y576310D01*
X485810Y576560D01*
X487560D01*
X487810Y576310D01*
Y573060D01*
D02*
G37*
G36*
X520700Y660400D02*
X374650D01*
Y768350D01*
X520700D01*
Y660400D01*
D02*
G37*
%LPC*%
G36*
X466810Y728400D02*
X461040D01*
Y722630D01*
X466810D01*
Y728400D01*
D02*
G37*
G36*
X430500D02*
X424730D01*
Y722630D01*
X430500D01*
Y728400D01*
D02*
G37*
G36*
X458500D02*
X447040D01*
Y721360D01*
X444500D01*
Y728400D01*
X433040D01*
Y721360D01*
X431770D01*
Y720090D01*
X424730D01*
Y714320D01*
Y708630D01*
X431770D01*
Y706090D01*
X424730D01*
Y700320D01*
Y694630D01*
X431770D01*
Y693360D01*
X433040D01*
Y686320D01*
X438730D01*
Y686320D01*
X444500D01*
Y693360D01*
X447040D01*
Y686320D01*
X452810D01*
Y686320D01*
X458500D01*
Y693360D01*
X459770D01*
Y694630D01*
X466810D01*
Y700320D01*
X466810D01*
Y706090D01*
X459770D01*
Y708630D01*
X466810D01*
Y714400D01*
X466810D01*
Y720090D01*
X459770D01*
Y721360D01*
X458500D01*
Y728400D01*
D02*
G37*
G36*
X466810Y692090D02*
X461040D01*
Y686320D01*
X466810D01*
Y692090D01*
D02*
G37*
G36*
X430500Y692090D02*
X424730D01*
Y686320D01*
X430500D01*
Y692090D01*
D02*
G37*
%LPD*%
D10*
X546170Y766810D02*
G03*
X549710Y763270I3540J0D01*
G01*
X546440Y779780D02*
G03*
X546170Y779510I0J-270D01*
G01*
X393970Y809860D02*
G03*
X396240Y815340I-5480J5480D01*
G01*
Y830580D02*
G03*
X393970Y825100I5480J-5480D01*
G01*
X415199Y836930D02*
G03*
X433159Y844370I0J25400D01*
G01*
X411570Y836930D02*
G03*
X396240Y830580I0J-21680D01*
G01*
X435610Y824230D02*
G03*
X432070Y815684I8546J-8546D01*
G01*
X459276Y847896D02*
G03*
X462550Y855799I-7903J7903D01*
G01*
X520700Y810512D02*
G03*
X520970Y809860I922J0D01*
G01*
X537391Y813580D02*
G03*
X544830Y831541I-17960J17960D01*
G01*
X388709Y862420D02*
G03*
X381270Y844459I17960J-17960D01*
G01*
X499471Y962660D02*
G03*
X481511Y955220I0J-25400D01*
G01*
X359098Y480960D02*
G03*
X360305Y480460I1207J1207D01*
G01*
Y505460D02*
G03*
X359098Y504960I0J-1707D01*
G01*
X360305Y465460D02*
G03*
X359098Y464960I0J-1707D01*
G01*
X400721Y448620D02*
G03*
X382761Y441180I0J-25400D01*
G01*
X394595Y464885D02*
G03*
X388620Y467360I-5975J-5975D01*
G01*
D02*
G03*
X402738Y473208I0J19966D01*
G01*
X359098Y520960D02*
G03*
X360305Y520460I1207J1207D01*
G01*
X333237Y521300D02*
G03*
X325797Y503339I17960J-17960D01*
G01*
Y482581D02*
G03*
X333237Y464621I25400J0D01*
G01*
X294797Y463538D02*
G03*
X300297Y450260I18778J0D01*
G01*
X295401Y492960D02*
G03*
X294797Y492710I0J-854D01*
G01*
X300297Y535660D02*
G03*
X294797Y522382I13278J-13278D01*
G01*
X480060Y587218D02*
G03*
X479590Y588353I-1605J0D01*
G01*
Y598470D02*
G03*
X474980Y609600I-15739J0D01*
G01*
X488390Y588353D02*
G03*
X486560Y583935I4418J-4418D01*
G01*
X409004Y572706D02*
G03*
X424180Y566420I15176J15176D01*
G01*
X451291Y583010D02*
G03*
X433330Y575570I0J-25400D01*
G01*
X341630Y566420D02*
G03*
X353631Y571391I0J16972D01*
G01*
X464950Y551260D02*
G03*
X464820Y550946I314J-314D01*
G01*
X377990Y605790D02*
G03*
X381270Y613709I-7919J7919D01*
G01*
X368570Y634860D02*
G03*
X364490Y625010I9850J-9850D01*
G01*
X477068Y551260D02*
G03*
X479500Y552267I0J3440D01*
G01*
X455950Y551260D02*
G03*
X460450Y562124I-10864J10864D01*
G01*
X486560Y565310D02*
G03*
X485323Y568297I-4225J0D01*
G01*
X485323Y572323D02*
G03*
X486560Y575310I-2987J2987D01*
G01*
X486560Y556468D02*
G03*
X488300Y552267I5941J0D01*
G01*
X479500D02*
G03*
X480060Y553619I-1352J1352D01*
G01*
X546170Y741410D02*
X554990Y737870D01*
X568960Y726440D01*
X546170Y754110D02*
X568960Y745490D01*
X546170Y741410D02*
X549400Y738180D01*
X549710Y763270D02*
X568960D01*
X546440Y779780D02*
X568960D01*
X393970Y809860D02*
Y825100D01*
X411570Y836930D02*
X415199D01*
X433159Y844370D02*
X449850Y861060D01*
X432070Y809860D02*
Y815684D01*
X435610Y824230D02*
X459276Y847896D01*
X520700Y810512D02*
Y844550D01*
X533670Y809860D02*
X537391Y813580D01*
X544830Y831541D02*
Y858520D01*
X462550Y901970D02*
X463550Y902970D01*
X462550Y855799D02*
Y901970D01*
X388709Y862420D02*
X481511Y955220D01*
X499471Y962660D02*
X551450D01*
X381270Y809860D02*
Y844459D01*
X445770Y693360D02*
Y721360D01*
X459770Y707360D02*
Y721360D01*
Y707360D02*
X459770Y707360D01*
X445770Y721360D02*
X459770D01*
X431770D02*
X445770D01*
X431770Y707360D02*
Y721360D01*
Y693360D02*
Y707360D01*
X431770Y707360D02*
X438770D01*
X431770Y707360D02*
X431770Y707360D01*
X438770Y693360D02*
X438770Y693360D01*
X445770D01*
X360305Y480460D02*
X371598D01*
X360305Y505460D02*
X371598D01*
X360305Y465460D02*
X371598D01*
X381000Y439420D02*
X382761Y441180D01*
X400721Y448620D02*
X403860D01*
X402738Y473208D02*
X403860Y474330D01*
X394595Y464885D02*
X403860Y455620D01*
X403860Y511810D02*
X453390D01*
X360305Y520460D02*
X371598D01*
X333237Y521300D02*
X347598Y535660D01*
X325797Y482581D02*
Y492960D01*
X295401D02*
X325797D01*
Y503339D01*
X333237Y464621D02*
X347598Y450260D01*
X294797Y492710D02*
Y522382D01*
Y463538D02*
Y492710D01*
X479590Y588353D02*
Y598470D01*
X507073Y588353D02*
X508000Y589280D01*
X488390Y588353D02*
X507073D01*
X424180Y566420D02*
X433330Y575570D01*
X451291Y583010D02*
X460450D01*
X353631Y571391D02*
X366440Y584200D01*
X401320Y580390D02*
X409004Y572706D01*
X375240Y584200D02*
X377990Y605790D01*
X401320Y589190D02*
X402010Y605790D01*
X364490D02*
Y625010D01*
Y605790D02*
X366440Y584200D01*
X377990Y605790D02*
X393010D01*
X393970Y634860D02*
X402010Y605790D01*
X381270Y613709D02*
Y634860D01*
X460450Y562124D02*
Y568010D01*
X486560Y556468D02*
Y565310D01*
X483310Y570310D02*
X485323Y568297D01*
X486560Y575310D02*
Y583935D01*
X483310Y570310D02*
X485323Y572323D01*
D15*
X403860Y481330D02*
D03*
X403860Y504810D02*
D03*
X403860Y474330D02*
D03*
X403860Y511810D02*
D03*
X403860Y455620D02*
D03*
Y448620D02*
D03*
D16*
X371598Y520460D02*
D03*
Y510460D02*
D03*
Y505460D02*
D03*
Y500460D02*
D03*
X371598Y495460D02*
D03*
Y490460D02*
D03*
X371598Y485460D02*
D03*
Y480460D02*
D03*
Y475460D02*
D03*
Y515460D02*
D03*
Y470460D02*
D03*
Y465460D02*
D03*
D17*
X325797Y492960D02*
D03*
X294797Y492710D02*
D03*
D18*
X520970Y634860D02*
D03*
X533670Y634860D02*
D03*
X368570Y634860D02*
D03*
X381270D02*
D03*
X393970D02*
D03*
X406670Y634860D02*
D03*
X419370Y634860D02*
D03*
X432070D02*
D03*
X444770D02*
D03*
X457470D02*
D03*
X470170Y634860D02*
D03*
X482870Y634860D02*
D03*
X495570D02*
D03*
X508270D02*
D03*
X533670Y809860D02*
D03*
X520970Y809860D02*
D03*
X508270D02*
D03*
X495570Y809860D02*
D03*
X482870Y809860D02*
D03*
X470170Y809860D02*
D03*
X457470Y809860D02*
D03*
X444770D02*
D03*
X432070Y809860D02*
D03*
X419370Y809860D02*
D03*
X406670Y809860D02*
D03*
X393970Y809860D02*
D03*
X381270D02*
D03*
X368570Y809860D02*
D03*
D20*
X480060Y565310D02*
D03*
X486560D02*
D03*
X486560Y575310D02*
D03*
X480060Y575310D02*
D03*
D21*
X464950Y551260D02*
D03*
X455950Y551260D02*
D03*
X393010Y605790D02*
D03*
X402010D02*
D03*
D22*
X479500Y552267D02*
D03*
X488300D02*
D03*
X479590Y588353D02*
D03*
X488390Y588353D02*
D03*
X375240Y584200D02*
D03*
X366440D02*
D03*
D23*
X460450Y583010D02*
D03*
Y568010D02*
D03*
D24*
X364490Y605790D02*
D03*
X377990D02*
D03*
D25*
X401320Y589190D02*
D03*
Y580390D02*
D03*
D26*
X445770Y707360D02*
D03*
X445770Y693360D02*
D03*
Y721360D02*
D03*
X459770Y693360D02*
D03*
X459770Y707360D02*
D03*
X459770Y721360D02*
D03*
X431770Y693360D02*
D03*
Y707360D02*
D03*
Y721360D02*
D03*
D27*
X546170Y652510D02*
D03*
Y665210D02*
D03*
Y677910D02*
D03*
Y690610D02*
D03*
Y703310D02*
D03*
Y716010D02*
D03*
Y728710D02*
D03*
Y741410D02*
D03*
Y754110D02*
D03*
X546170Y766810D02*
D03*
X546170Y779510D02*
D03*
X546170Y792210D02*
D03*
D45*
X356870Y830580D02*
G03*
X363248Y815182I21776J0D01*
G01*
X443230Y534670D02*
G03*
X458406Y540956I0J21462D01*
G01*
X417331Y542109D02*
G03*
X435291Y534670I17960J17960D01*
G01*
X363248Y815182D02*
X368570Y809860D01*
X464950Y551260D02*
X477068D01*
X464820Y547370D02*
Y550946D01*
X435291Y534670D02*
X443230D01*
X375240Y584200D02*
X417331Y542109D01*
X458406Y540956D02*
X464820Y547370D01*
D46*
X394633Y485152D02*
G03*
X393913Y485450I-720J-720D01*
G01*
X532345Y625455D02*
G03*
X533670Y626780I0J1325D01*
G01*
X532345Y625455D02*
G03*
X530860Y624840I0J-2100D01*
G01*
X521561Y527495D02*
G03*
X530860Y549946I-22451J22451D01*
G01*
X481330Y489895D02*
G03*
X485820Y491755I0J6350D01*
G01*
X424538Y489895D02*
G03*
X413087Y485152I0J-16194D01*
G01*
X403860Y481330D02*
G03*
X413087Y485152I0J13049D01*
G01*
X393913Y500690D02*
G03*
X394633Y500988I0J1018D01*
G01*
X520970Y627510D02*
G03*
X523025Y625455I2055J0D01*
G01*
X524510Y624840D02*
G03*
X523025Y625455I-1485J-1485D01*
G01*
X517071Y531986D02*
G03*
X524510Y549946I-17960J17960D01*
G01*
X413087Y500988D02*
G03*
X424538Y496245I11451J11451D01*
G01*
X394633Y485152D02*
G03*
X403860Y481330I9227J9227D01*
G01*
X403860Y504810D02*
G03*
X394633Y500988I0J-13049D01*
G01*
X413087D02*
G03*
X403860Y504810I-9227J-9227D01*
G01*
X480060Y575310D02*
Y587218D01*
Y553619D02*
Y565310D01*
X388620Y485450D02*
X393913D01*
X530860Y549946D02*
Y624840D01*
X485820Y491755D02*
X521561Y527495D01*
X424538Y489895D02*
X481330D01*
X388620Y500690D02*
X393913D01*
X520970Y627510D02*
Y634860D01*
X524510Y549946D02*
Y624840D01*
X481330Y496245D02*
X517071Y531986D01*
X424538Y496245D02*
X481330D01*
X533670Y626780D02*
Y634860D01*
D47*
X483310Y570310D02*
D03*
D48*
X481600Y1089660D02*
D03*
X418100D02*
D03*
X481600Y1038860D02*
D03*
X418100D02*
D03*
X475250Y861060D02*
D03*
X449850D02*
D03*
X424450D02*
D03*
X551450Y988060D02*
D03*
Y962660D02*
D03*
Y937260D02*
D03*
D49*
X526050Y1029335D02*
D03*
Y895985D02*
D03*
X373650D02*
D03*
Y1029335D02*
D03*
D50*
X359098Y488960D02*
D03*
X352097Y484960D02*
D03*
X359098Y480960D02*
D03*
Y472960D02*
D03*
Y464960D02*
D03*
X352098Y476960D02*
D03*
Y468960D02*
D03*
Y516960D02*
D03*
Y508960D02*
D03*
X359098Y520960D02*
D03*
Y512960D02*
D03*
Y504960D02*
D03*
X352098Y500960D02*
D03*
X359098Y496960D02*
D03*
D51*
X347598Y450260D02*
D03*
Y535660D02*
D03*
X300297Y535660D02*
D03*
Y450260D02*
D03*
D52*
X438770Y707360D02*
D03*
X438770Y693360D02*
D03*
Y721360D02*
D03*
X452770Y693360D02*
D03*
Y707360D02*
D03*
X452770Y721360D02*
D03*
X431770Y700360D02*
D03*
Y714360D02*
D03*
X445770Y700360D02*
D03*
Y714360D02*
D03*
X459770Y700360D02*
D03*
Y714360D02*
D03*
D53*
X568960Y745490D02*
D03*
Y726440D02*
D03*
X474980Y609600D02*
D03*
X568960Y763270D02*
D03*
Y779780D02*
D03*
X520700Y844550D02*
D03*
X544830Y858520D02*
D03*
X463550Y902970D02*
D03*
X356870Y830580D02*
D03*
X381000Y439420D02*
D03*
X388620Y467360D02*
D03*
X453390Y511810D02*
D03*
X508000Y589280D02*
D03*
X341630Y566420D02*
D03*
X424180D02*
D03*
X388620Y485450D02*
D03*
Y500690D02*
D03*
M02*
