G04*
G04 #@! TF.GenerationSoftware,Altium Limited,Altium Designer,23.9.2 (47)*
G04*
G04 Layer_Physical_Order=3*
G04 Layer_Color=16440176*
%FSLAX44Y44*%
%MOMM*%
G71*
G04*
G04 #@! TF.SameCoordinates,5FA424B9-A6D8-4F7E-AE3D-71B40F287457*
G04*
G04*
G04 #@! TF.FilePolarity,Positive*
G04*
G01*
G75*
%ADD10C,0.2540*%
%ADD46C,0.3810*%
%ADD48C,1.7780*%
%ADD49C,2.2860*%
%ADD50C,0.6500*%
%ADD51O,1.6000X1.0000*%
%ADD52C,0.4000*%
%ADD53C,1.2700*%
G36*
X603250Y382270D02*
X285750D01*
Y1159510D01*
X603250D01*
Y382270D01*
D02*
G37*
%LPC*%
G36*
X483105Y1101090D02*
X480095D01*
X477188Y1100311D01*
X474582Y1098806D01*
X472454Y1096678D01*
X470949Y1094072D01*
X470170Y1091165D01*
Y1088155D01*
X470949Y1085248D01*
X472454Y1082642D01*
X474582Y1080514D01*
X477188Y1079009D01*
X480095Y1078230D01*
X483105D01*
X486012Y1079009D01*
X488618Y1080514D01*
X490746Y1082642D01*
X492251Y1085248D01*
X493030Y1088155D01*
Y1091165D01*
X492251Y1094072D01*
X490746Y1096678D01*
X488618Y1098806D01*
X486012Y1100311D01*
X483105Y1101090D01*
D02*
G37*
G36*
X419605D02*
X416595D01*
X413688Y1100311D01*
X411082Y1098806D01*
X408954Y1096678D01*
X407449Y1094072D01*
X406670Y1091165D01*
Y1088155D01*
X407449Y1085248D01*
X408954Y1082642D01*
X411082Y1080514D01*
X413688Y1079009D01*
X416595Y1078230D01*
X419605D01*
X422512Y1079009D01*
X425118Y1080514D01*
X427246Y1082642D01*
X428751Y1085248D01*
X429530Y1088155D01*
Y1091165D01*
X428751Y1094072D01*
X427246Y1096678D01*
X425118Y1098806D01*
X422512Y1100311D01*
X419605Y1101090D01*
D02*
G37*
G36*
X483105Y1050290D02*
X480095D01*
X477188Y1049511D01*
X474582Y1048006D01*
X472454Y1045878D01*
X470949Y1043272D01*
X470170Y1040365D01*
Y1037355D01*
X470949Y1034448D01*
X472454Y1031842D01*
X474582Y1029714D01*
X477188Y1028209D01*
X480095Y1027430D01*
X483105D01*
X486012Y1028209D01*
X488618Y1029714D01*
X490746Y1031842D01*
X492251Y1034448D01*
X493030Y1037355D01*
Y1040365D01*
X492251Y1043272D01*
X490746Y1045878D01*
X488618Y1048006D01*
X486012Y1049511D01*
X483105Y1050290D01*
D02*
G37*
G36*
X419605D02*
X416595D01*
X413688Y1049511D01*
X411082Y1048006D01*
X408954Y1045878D01*
X407449Y1043272D01*
X406670Y1040365D01*
Y1037355D01*
X407449Y1034448D01*
X408954Y1031842D01*
X411082Y1029714D01*
X413688Y1028209D01*
X416595Y1027430D01*
X419605D01*
X422512Y1028209D01*
X425118Y1029714D01*
X427246Y1031842D01*
X428751Y1034448D01*
X429530Y1037355D01*
Y1040365D01*
X428751Y1043272D01*
X427246Y1045878D01*
X425118Y1048006D01*
X422512Y1049511D01*
X419605Y1050290D01*
D02*
G37*
G36*
X527889Y1043305D02*
X524211D01*
X520658Y1042353D01*
X517472Y1040514D01*
X514871Y1037913D01*
X513032Y1034727D01*
X512080Y1031174D01*
Y1027496D01*
X513032Y1023943D01*
X514871Y1020757D01*
X517472Y1018156D01*
X520658Y1016317D01*
X524211Y1015365D01*
X527889D01*
X531442Y1016317D01*
X534628Y1018156D01*
X537229Y1020757D01*
X539068Y1023943D01*
X540020Y1027496D01*
Y1031174D01*
X539068Y1034727D01*
X537229Y1037913D01*
X534628Y1040514D01*
X531442Y1042353D01*
X527889Y1043305D01*
D02*
G37*
G36*
X375489D02*
X371811D01*
X368258Y1042353D01*
X365072Y1040514D01*
X362471Y1037913D01*
X360632Y1034727D01*
X359680Y1031174D01*
Y1027496D01*
X360632Y1023943D01*
X362471Y1020757D01*
X365072Y1018156D01*
X368258Y1016317D01*
X371811Y1015365D01*
X375489D01*
X379042Y1016317D01*
X382228Y1018156D01*
X384829Y1020757D01*
X386668Y1023943D01*
X387620Y1027496D01*
Y1031174D01*
X386668Y1034727D01*
X384829Y1037913D01*
X382228Y1040514D01*
X379042Y1042353D01*
X375489Y1043305D01*
D02*
G37*
G36*
X552955Y999490D02*
X552720D01*
Y989330D01*
X562880D01*
Y989565D01*
X562101Y992472D01*
X560596Y995078D01*
X558468Y997206D01*
X555862Y998711D01*
X552955Y999490D01*
D02*
G37*
G36*
X550180D02*
X549945D01*
X547038Y998711D01*
X544432Y997206D01*
X542304Y995078D01*
X540799Y992472D01*
X540020Y989565D01*
Y989330D01*
X550180D01*
Y999490D01*
D02*
G37*
G36*
X562880Y986790D02*
X552720D01*
Y976630D01*
X552955D01*
X555862Y977409D01*
X558468Y978914D01*
X560596Y981042D01*
X562101Y983648D01*
X562880Y986555D01*
Y986790D01*
D02*
G37*
G36*
X550180D02*
X540020D01*
Y986555D01*
X540799Y983648D01*
X542304Y981042D01*
X544432Y978914D01*
X547038Y977409D01*
X549945Y976630D01*
X550180D01*
Y986790D01*
D02*
G37*
G36*
X552955Y974090D02*
X549945D01*
X547038Y973311D01*
X544432Y971806D01*
X542304Y969678D01*
X540799Y967072D01*
X540020Y964165D01*
Y961155D01*
X540799Y958248D01*
X542304Y955642D01*
X544432Y953514D01*
X547038Y952009D01*
X549945Y951230D01*
X552955D01*
X555862Y952009D01*
X558468Y953514D01*
X560596Y955642D01*
X562101Y958248D01*
X562880Y961155D01*
Y964165D01*
X562101Y967072D01*
X560596Y969678D01*
X558468Y971806D01*
X555862Y973311D01*
X552955Y974090D01*
D02*
G37*
G36*
Y948690D02*
X549945D01*
X547038Y947911D01*
X544432Y946406D01*
X542304Y944278D01*
X540799Y941672D01*
X540020Y938765D01*
Y935755D01*
X540799Y932848D01*
X542304Y930242D01*
X544432Y928114D01*
X547038Y926609D01*
X549945Y925830D01*
X552955D01*
X555862Y926609D01*
X558468Y928114D01*
X560596Y930242D01*
X562101Y932848D01*
X562880Y935755D01*
Y938765D01*
X562101Y941672D01*
X560596Y944278D01*
X558468Y946406D01*
X555862Y947911D01*
X552955Y948690D01*
D02*
G37*
G36*
X464720Y911860D02*
X462380D01*
X460119Y911254D01*
X458091Y910084D01*
X456436Y908429D01*
X455266Y906401D01*
X454660Y904140D01*
Y901800D01*
X455266Y899539D01*
X456436Y897511D01*
X458091Y895856D01*
X460119Y894686D01*
X462380Y894080D01*
X464720D01*
X466981Y894686D01*
X469009Y895856D01*
X470664Y897511D01*
X471834Y899539D01*
X472440Y901800D01*
Y904140D01*
X471834Y906401D01*
X470664Y908429D01*
X469009Y910084D01*
X466981Y911254D01*
X464720Y911860D01*
D02*
G37*
G36*
X527889Y909955D02*
X524211D01*
X520658Y909003D01*
X517472Y907164D01*
X514871Y904563D01*
X513032Y901377D01*
X512080Y897824D01*
Y894146D01*
X513032Y890593D01*
X514871Y887407D01*
X517472Y884806D01*
X520658Y882967D01*
X524211Y882015D01*
X527889D01*
X531442Y882967D01*
X534628Y884806D01*
X537229Y887407D01*
X539068Y890593D01*
X540020Y894146D01*
Y897824D01*
X539068Y901377D01*
X537229Y904563D01*
X534628Y907164D01*
X531442Y909003D01*
X527889Y909955D01*
D02*
G37*
G36*
X375489D02*
X371811D01*
X368258Y909003D01*
X365072Y907164D01*
X362471Y904563D01*
X360632Y901377D01*
X359680Y897824D01*
Y894146D01*
X360632Y890593D01*
X362471Y887407D01*
X365072Y884806D01*
X368258Y882967D01*
X371811Y882015D01*
X375489D01*
X379042Y882967D01*
X382228Y884806D01*
X384829Y887407D01*
X386668Y890593D01*
X387620Y894146D01*
Y897824D01*
X386668Y901377D01*
X384829Y904563D01*
X382228Y907164D01*
X379042Y909003D01*
X375489Y909955D01*
D02*
G37*
G36*
X476755Y872490D02*
X476520D01*
Y862330D01*
X486680D01*
Y862565D01*
X485901Y865472D01*
X484396Y868078D01*
X482268Y870206D01*
X479662Y871711D01*
X476755Y872490D01*
D02*
G37*
G36*
X473980D02*
X473745D01*
X470838Y871711D01*
X468232Y870206D01*
X466104Y868078D01*
X464599Y865472D01*
X463820Y862565D01*
Y862330D01*
X473980D01*
Y872490D01*
D02*
G37*
G36*
X546000Y867410D02*
X543660D01*
X541399Y866804D01*
X539371Y865634D01*
X537716Y863979D01*
X536546Y861951D01*
X535940Y859690D01*
Y857350D01*
X536546Y855089D01*
X537716Y853061D01*
X539371Y851406D01*
X541399Y850236D01*
X543660Y849630D01*
X546000D01*
X548261Y850236D01*
X550289Y851406D01*
X551944Y853061D01*
X553114Y855089D01*
X553720Y857350D01*
Y859690D01*
X553114Y861951D01*
X551944Y863979D01*
X550289Y865634D01*
X548261Y866804D01*
X546000Y867410D01*
D02*
G37*
G36*
X486680Y859790D02*
X476520D01*
Y849630D01*
X476755D01*
X479662Y850409D01*
X482268Y851914D01*
X484396Y854042D01*
X485901Y856648D01*
X486680Y859555D01*
Y859790D01*
D02*
G37*
G36*
X473980D02*
X463820D01*
Y859555D01*
X464599Y856648D01*
X466104Y854042D01*
X468232Y851914D01*
X470838Y850409D01*
X473745Y849630D01*
X473980D01*
Y859790D01*
D02*
G37*
G36*
X451355Y872490D02*
X448345D01*
X445438Y871711D01*
X442832Y870206D01*
X440704Y868078D01*
X439199Y865472D01*
X438420Y862565D01*
Y859555D01*
X439199Y856648D01*
X440704Y854042D01*
X442832Y851914D01*
X445438Y850409D01*
X448345Y849630D01*
X451355D01*
X454262Y850409D01*
X456868Y851914D01*
X458996Y854042D01*
X460501Y856648D01*
X461280Y859555D01*
Y862565D01*
X460501Y865472D01*
X458996Y868078D01*
X456868Y870206D01*
X454262Y871711D01*
X451355Y872490D01*
D02*
G37*
G36*
X425955D02*
X422945D01*
X420038Y871711D01*
X417432Y870206D01*
X415304Y868078D01*
X413799Y865472D01*
X413020Y862565D01*
Y859555D01*
X413799Y856648D01*
X415304Y854042D01*
X417432Y851914D01*
X420038Y850409D01*
X422945Y849630D01*
X425955D01*
X428862Y850409D01*
X431468Y851914D01*
X433596Y854042D01*
X435101Y856648D01*
X435880Y859555D01*
Y862565D01*
X435101Y865472D01*
X433596Y868078D01*
X431468Y870206D01*
X428862Y871711D01*
X425955Y872490D01*
D02*
G37*
G36*
X521870Y853440D02*
X519530D01*
X517269Y852834D01*
X515241Y851664D01*
X513586Y850009D01*
X512416Y847981D01*
X511810Y845720D01*
Y843380D01*
X512416Y841119D01*
X513586Y839091D01*
X515241Y837436D01*
X517269Y836266D01*
X519530Y835660D01*
X521870D01*
X524131Y836266D01*
X526159Y837436D01*
X527814Y839091D01*
X528984Y841119D01*
X529590Y843380D01*
Y845720D01*
X528984Y847981D01*
X527814Y850009D01*
X526159Y851664D01*
X524131Y852834D01*
X521870Y853440D01*
D02*
G37*
G36*
X358040Y839470D02*
X355700D01*
X353439Y838864D01*
X351411Y837694D01*
X349756Y836039D01*
X348586Y834011D01*
X347980Y831750D01*
Y829410D01*
X348586Y827149D01*
X349756Y825121D01*
X351411Y823466D01*
X353439Y822296D01*
X355700Y821690D01*
X358040D01*
X360301Y822296D01*
X362329Y823466D01*
X363984Y825121D01*
X365154Y827149D01*
X365760Y829410D01*
Y831750D01*
X365154Y834011D01*
X363984Y836039D01*
X362329Y837694D01*
X360301Y838864D01*
X358040Y839470D01*
D02*
G37*
G36*
X570130Y788670D02*
X567790D01*
X565529Y788064D01*
X563501Y786894D01*
X561846Y785239D01*
X560676Y783211D01*
X560070Y780950D01*
Y778610D01*
X560676Y776349D01*
X561846Y774321D01*
X563501Y772666D01*
X564378Y772160D01*
Y770890D01*
X563501Y770384D01*
X561846Y768729D01*
X560676Y766701D01*
X560070Y764440D01*
Y762100D01*
X560676Y759839D01*
X561846Y757811D01*
X563501Y756156D01*
X565407Y755056D01*
X565510Y754380D01*
X565407Y753704D01*
X563501Y752604D01*
X561846Y750949D01*
X560676Y748921D01*
X560070Y746660D01*
Y744320D01*
X560676Y742059D01*
X561846Y740031D01*
X563501Y738376D01*
X565529Y737206D01*
X567790Y736600D01*
X570130D01*
X572391Y737206D01*
X574419Y738376D01*
X576074Y740031D01*
X577244Y742059D01*
X577850Y744320D01*
Y746660D01*
X577244Y748921D01*
X576074Y750949D01*
X574419Y752604D01*
X572513Y753704D01*
X572410Y754380D01*
X572513Y755056D01*
X574419Y756156D01*
X576074Y757811D01*
X577244Y759839D01*
X577850Y762100D01*
Y764440D01*
X577244Y766701D01*
X576074Y768729D01*
X574419Y770384D01*
X573542Y770890D01*
Y772160D01*
X574419Y772666D01*
X576074Y774321D01*
X577244Y776349D01*
X577850Y778610D01*
Y780950D01*
X577244Y783211D01*
X576074Y785239D01*
X574419Y786894D01*
X572391Y788064D01*
X570130Y788670D01*
D02*
G37*
G36*
X453673Y725900D02*
X451867D01*
X450198Y725209D01*
X448921Y723932D01*
X448230Y722263D01*
Y720457D01*
X448644Y719458D01*
X447672Y718486D01*
X446673Y718900D01*
X444867D01*
X443868Y718486D01*
X442896Y719458D01*
X443310Y720457D01*
Y722263D01*
X442619Y723932D01*
X441342Y725209D01*
X439673Y725900D01*
X437867D01*
X436198Y725209D01*
X434921Y723932D01*
X434230Y722263D01*
Y720457D01*
X434644Y719458D01*
X433671Y718486D01*
X432673Y718900D01*
X430867D01*
X429198Y718209D01*
X427921Y716932D01*
X427230Y715263D01*
Y713457D01*
X427921Y711788D01*
X429198Y710511D01*
X430867Y709820D01*
X432673D01*
X433672Y710234D01*
X434644Y709261D01*
X434230Y708263D01*
Y706457D01*
X434644Y705458D01*
X433672Y704486D01*
X432673Y704900D01*
X430867D01*
X429198Y704209D01*
X427921Y702932D01*
X427230Y701263D01*
Y699457D01*
X427921Y697788D01*
X429198Y696511D01*
X430867Y695820D01*
X432673D01*
X433671Y696234D01*
X434644Y695262D01*
X434230Y694263D01*
Y692457D01*
X434921Y690788D01*
X436198Y689511D01*
X437867Y688820D01*
X439673D01*
X441342Y689511D01*
X442619Y690788D01*
X443310Y692457D01*
Y694263D01*
X442896Y695262D01*
X443868Y696234D01*
X444867Y695820D01*
X446673D01*
X447672Y696234D01*
X448644Y695262D01*
X448230Y694263D01*
Y692457D01*
X448921Y690788D01*
X450198Y689511D01*
X451867Y688820D01*
X453673D01*
X455342Y689511D01*
X456619Y690788D01*
X457310Y692457D01*
Y694263D01*
X456896Y695262D01*
X457868Y696234D01*
X458867Y695820D01*
X460673D01*
X462342Y696511D01*
X463619Y697788D01*
X464310Y699457D01*
Y701263D01*
X463619Y702932D01*
X462342Y704209D01*
X460673Y704900D01*
X458867D01*
X457868Y704486D01*
X456896Y705458D01*
X457310Y706457D01*
Y708263D01*
X456896Y709261D01*
X457868Y710234D01*
X458867Y709820D01*
X460673D01*
X462342Y710511D01*
X463619Y711788D01*
X464310Y713457D01*
Y715263D01*
X463619Y716932D01*
X462342Y718209D01*
X460673Y718900D01*
X458867D01*
X457868Y718486D01*
X456896Y719458D01*
X457310Y720457D01*
Y722263D01*
X456619Y723932D01*
X455342Y725209D01*
X453673Y725900D01*
D02*
G37*
G36*
X570130Y735330D02*
X567790D01*
X565529Y734724D01*
X563501Y733554D01*
X561846Y731899D01*
X560676Y729871D01*
X560070Y727610D01*
Y725270D01*
X560676Y723009D01*
X561846Y720981D01*
X563501Y719326D01*
X565529Y718156D01*
X567790Y717550D01*
X570130D01*
X572391Y718156D01*
X574419Y719326D01*
X576074Y720981D01*
X577244Y723009D01*
X577850Y725270D01*
Y727610D01*
X577244Y729871D01*
X576074Y731899D01*
X574419Y733554D01*
X572391Y734724D01*
X570130Y735330D01*
D02*
G37*
G36*
X353670Y814950D02*
X293670Y814950D01*
X292679Y814753D01*
X291839Y814191D01*
X291277Y813351D01*
X291080Y812360D01*
X291080Y632360D01*
X291277Y631369D01*
X291839Y630529D01*
X292679Y629967D01*
X293670Y629770D01*
X353670Y629770D01*
X354661Y629967D01*
X355501Y630529D01*
X356063Y631369D01*
X356260Y632360D01*
X356260Y812360D01*
X356063Y813351D01*
X355501Y814191D01*
X354661Y814753D01*
X353670Y814950D01*
D02*
G37*
G36*
X476150Y618490D02*
X473810D01*
X471549Y617884D01*
X469521Y616714D01*
X467866Y615059D01*
X466696Y613031D01*
X466090Y610770D01*
Y608430D01*
X466367Y607396D01*
X441019Y582048D01*
X440112Y581170D01*
X440100Y581160D01*
X439309Y580233D01*
X436512Y576958D01*
X433624Y572247D01*
X433175Y571161D01*
X431762Y571068D01*
X431294Y571879D01*
X429639Y573534D01*
X427611Y574704D01*
X425350Y575310D01*
X423010D01*
X420749Y574704D01*
X418721Y573534D01*
X417066Y571879D01*
X415896Y569851D01*
X415290Y567590D01*
Y565250D01*
X415896Y562989D01*
X417066Y560961D01*
X418721Y559306D01*
X420749Y558136D01*
X423010Y557530D01*
X425350D01*
X427611Y558136D01*
X428710Y558770D01*
X429924Y558004D01*
X429786Y556260D01*
X429727Y555015D01*
X429524Y552949D01*
X428558Y549765D01*
X426989Y546831D01*
X424968Y544368D01*
X424849Y544288D01*
X409482Y528921D01*
X409402Y528802D01*
X406939Y526781D01*
X404005Y525212D01*
X400821Y524246D01*
X397651Y523934D01*
X397510Y523962D01*
X389890D01*
Y523985D01*
X385412Y523545D01*
X381107Y522238D01*
X377139Y520117D01*
X373661Y517263D01*
X373677Y517247D01*
X370749Y514318D01*
X370673Y514205D01*
X368274Y512236D01*
X365918Y510977D01*
X364893Y511804D01*
X364888Y511876D01*
Y514112D01*
X364006Y516240D01*
X363286Y516960D01*
X364006Y517680D01*
X364888Y519808D01*
Y522112D01*
X364006Y524240D01*
X362377Y525868D01*
X360249Y526750D01*
X357946D01*
X355818Y525868D01*
X354189Y524240D01*
X353525Y522636D01*
X353249Y522750D01*
X350946D01*
X348818Y521869D01*
X347189Y520240D01*
X346307Y518112D01*
Y515808D01*
X347189Y513680D01*
X347909Y512960D01*
X347189Y512240D01*
X346307Y510112D01*
Y507808D01*
X347189Y505680D01*
X347909Y504960D01*
X347189Y504240D01*
X346307Y502112D01*
Y499808D01*
X347189Y497680D01*
X348818Y496051D01*
X350946Y495170D01*
X353249D01*
X353525Y495284D01*
X354189Y493680D01*
X354909Y492960D01*
X354189Y492240D01*
X353525Y490636D01*
X353249Y490750D01*
X350946D01*
X348818Y489869D01*
X347189Y488240D01*
X346307Y486112D01*
Y483808D01*
X347189Y481680D01*
X347909Y480960D01*
X347189Y480240D01*
X346307Y478112D01*
Y475808D01*
X347189Y473680D01*
X347909Y472960D01*
X347189Y472240D01*
X346307Y470112D01*
Y467808D01*
X347189Y465680D01*
X348818Y464052D01*
X350946Y463170D01*
X353249D01*
X353525Y463284D01*
X354189Y461680D01*
X355818Y460051D01*
X357946Y459170D01*
X360249D01*
X362377Y460051D01*
X364006Y461680D01*
X364888Y463808D01*
Y466112D01*
X364006Y468240D01*
X363286Y468960D01*
X364006Y469680D01*
X364526Y470937D01*
X366025Y471235D01*
X370356Y466903D01*
X370356Y466903D01*
X371192Y465980D01*
X373002Y463775D01*
X374936Y460157D01*
X376127Y456231D01*
X376509Y452352D01*
X376468Y452148D01*
Y447069D01*
X375541Y446534D01*
X373886Y444879D01*
X372716Y442851D01*
X372110Y440590D01*
Y438250D01*
X372716Y435989D01*
X373886Y433961D01*
X375541Y432306D01*
X377569Y431136D01*
X379830Y430530D01*
X382170D01*
X384431Y431136D01*
X386459Y432306D01*
X388114Y433961D01*
X389284Y435989D01*
X389890Y438250D01*
Y440590D01*
X389284Y442851D01*
X388114Y444879D01*
X386459Y446534D01*
X385532Y447069D01*
Y452148D01*
X385537D01*
X385169Y456831D01*
X384929Y457831D01*
X385987Y458862D01*
X387450Y458470D01*
X389790D01*
X392051Y459076D01*
X394079Y460246D01*
X395734Y461901D01*
X396904Y463929D01*
X397510Y466190D01*
Y468530D01*
X396904Y470791D01*
X395734Y472819D01*
X394079Y474474D01*
X392051Y475644D01*
X391665Y475748D01*
Y477062D01*
X392051Y477166D01*
X394079Y478336D01*
X395734Y479991D01*
X396904Y482019D01*
X397510Y484280D01*
Y486620D01*
X396904Y488881D01*
X395734Y490909D01*
X394366Y492276D01*
X394191Y493070D01*
X394366Y493864D01*
X395734Y495231D01*
X396904Y497259D01*
X397510Y499520D01*
Y501860D01*
X396904Y504121D01*
X395734Y506149D01*
X394079Y507804D01*
X392051Y508974D01*
X389790Y509580D01*
X387450D01*
X385189Y508974D01*
X383161Y507804D01*
X381506Y506149D01*
X380336Y504121D01*
X379730Y501860D01*
Y499520D01*
X380336Y497259D01*
X381506Y495231D01*
X382874Y493864D01*
X383049Y493070D01*
X382874Y492276D01*
X381506Y490909D01*
X380336Y488881D01*
X379730Y486620D01*
Y484280D01*
X380336Y482019D01*
X381506Y479991D01*
X383161Y478336D01*
X385189Y477166D01*
X385575Y477062D01*
Y475748D01*
X385189Y475644D01*
X383161Y474474D01*
X381506Y472819D01*
X380441Y470973D01*
X379737Y470753D01*
X378998Y470706D01*
X376769Y473316D01*
X376769Y473316D01*
X375867Y474211D01*
X370833Y479245D01*
X372466Y481158D01*
X374804Y484973D01*
X376517Y489108D01*
X377562Y493459D01*
X377913Y497921D01*
X377913D01*
X377912Y497932D01*
Y505588D01*
X377898Y505660D01*
X378142Y507515D01*
X378886Y509311D01*
X379959Y510709D01*
X380087Y510837D01*
X380223Y511041D01*
X382918Y513109D01*
X386281Y514502D01*
X389650Y514946D01*
X389890Y514898D01*
X397510D01*
Y514860D01*
X402589Y515360D01*
X407472Y516841D01*
X411973Y519247D01*
X415918Y522485D01*
X415891Y522511D01*
X415891Y522512D01*
X430360Y536981D01*
X431286Y537852D01*
X431286Y537852D01*
X434523Y541797D01*
X436929Y546298D01*
X438410Y551181D01*
X438910Y556260D01*
X438910D01*
X438911Y557530D01*
X439289Y561374D01*
X440781Y566292D01*
X443204Y570824D01*
X445671Y573831D01*
X446533Y574744D01*
X446535Y574745D01*
X447431Y575642D01*
X472776Y600987D01*
X473810Y600710D01*
X476150D01*
X478411Y601316D01*
X480439Y602486D01*
X482094Y604141D01*
X483264Y606169D01*
X483870Y608430D01*
Y610770D01*
X483264Y613031D01*
X482094Y615059D01*
X480439Y616714D01*
X478411Y617884D01*
X476150Y618490D01*
D02*
G37*
G36*
X509170Y598170D02*
X506830D01*
X504569Y597564D01*
X502541Y596394D01*
X500886Y594739D01*
X499716Y592711D01*
X499110Y590450D01*
Y588110D01*
X499716Y585849D01*
X500886Y583821D01*
X502541Y582166D01*
X504569Y580996D01*
X506830Y580390D01*
X509170D01*
X511431Y580996D01*
X513459Y582166D01*
X515114Y583821D01*
X516284Y585849D01*
X516890Y588110D01*
Y590450D01*
X516284Y592711D01*
X515114Y594739D01*
X513459Y596394D01*
X511431Y597564D01*
X509170Y598170D01*
D02*
G37*
G36*
X342800Y575310D02*
X340460D01*
X338199Y574704D01*
X336171Y573534D01*
X334516Y571879D01*
X333346Y569851D01*
X332740Y567590D01*
Y565250D01*
X333346Y562989D01*
X334516Y560961D01*
X336171Y559306D01*
X338199Y558136D01*
X340460Y557530D01*
X342800D01*
X345061Y558136D01*
X347089Y559306D01*
X348744Y560961D01*
X349914Y562989D01*
X350520Y565250D01*
Y567590D01*
X349914Y569851D01*
X348744Y571879D01*
X347089Y573534D01*
X345061Y574704D01*
X342800Y575310D01*
D02*
G37*
G36*
X350597Y543265D02*
X344598D01*
X342629Y543006D01*
X340795Y542246D01*
X339220Y541038D01*
X338011Y539463D01*
X337252Y537628D01*
X336992Y535660D01*
X337252Y533692D01*
X338011Y531857D01*
X339220Y530282D01*
X340795Y529074D01*
X342629Y528314D01*
X344598Y528055D01*
X350597D01*
X352566Y528314D01*
X354400Y529074D01*
X355975Y530282D01*
X357184Y531857D01*
X357943Y533692D01*
X358203Y535660D01*
X357943Y537628D01*
X357184Y539463D01*
X355975Y541038D01*
X354400Y542246D01*
X352566Y543006D01*
X350597Y543265D01*
D02*
G37*
G36*
X303297Y543265D02*
X297297D01*
X295329Y543006D01*
X293495Y542246D01*
X291920Y541038D01*
X290711Y539463D01*
X289951Y537628D01*
X289692Y535660D01*
X289951Y533692D01*
X290711Y531857D01*
X291920Y530282D01*
X293495Y529074D01*
X295329Y528314D01*
X297297Y528055D01*
X303297D01*
X305266Y528314D01*
X307100Y529074D01*
X308675Y530282D01*
X309884Y531857D01*
X310643Y533692D01*
X310903Y535660D01*
X310643Y537628D01*
X309884Y539463D01*
X308675Y541038D01*
X307100Y542246D01*
X305266Y543006D01*
X303297Y543265D01*
D02*
G37*
G36*
X454560Y520700D02*
X452220D01*
X449959Y520094D01*
X447931Y518924D01*
X446276Y517269D01*
X445106Y515241D01*
X444500Y512980D01*
Y510640D01*
X445106Y508379D01*
X446276Y506351D01*
X447931Y504696D01*
X449959Y503526D01*
X452220Y502920D01*
X454560D01*
X456821Y503526D01*
X458849Y504696D01*
X460504Y506351D01*
X461674Y508379D01*
X462280Y510640D01*
Y512980D01*
X461674Y515241D01*
X460504Y517269D01*
X458849Y518924D01*
X456821Y520094D01*
X454560Y520700D01*
D02*
G37*
G36*
X350597Y457865D02*
X344598D01*
X342629Y457606D01*
X340795Y456846D01*
X339220Y455638D01*
X338011Y454062D01*
X337252Y452228D01*
X336992Y450260D01*
X337252Y448292D01*
X338011Y446457D01*
X339220Y444882D01*
X340795Y443674D01*
X342629Y442914D01*
X344598Y442655D01*
X350597D01*
X352566Y442914D01*
X354400Y443674D01*
X355975Y444882D01*
X357184Y446457D01*
X357943Y448292D01*
X358203Y450260D01*
X357943Y452228D01*
X357184Y454062D01*
X355975Y455638D01*
X354400Y456846D01*
X352566Y457606D01*
X350597Y457865D01*
D02*
G37*
G36*
X303297D02*
X297297D01*
X295329Y457606D01*
X293495Y456846D01*
X291920Y455638D01*
X290711Y454062D01*
X289951Y452228D01*
X289692Y450260D01*
X289951Y448292D01*
X290711Y446457D01*
X291920Y444882D01*
X293495Y443674D01*
X295329Y442914D01*
X297297Y442655D01*
X303297D01*
X305266Y442914D01*
X307100Y443674D01*
X308675Y444882D01*
X309884Y446457D01*
X310643Y448292D01*
X310903Y450260D01*
X310643Y452228D01*
X309884Y454062D01*
X308675Y455638D01*
X307100Y456846D01*
X305266Y457606D01*
X303297Y457865D01*
D02*
G37*
%LPD*%
D10*
X367064Y481704D02*
G03*
X367065Y481705I-1796J1796D01*
G01*
X367106Y481746D01*
X366320Y480960D02*
X367064Y481704D01*
X373380Y497921D02*
X373380Y497932D01*
D46*
X367106Y481746D02*
G03*
X373380Y497921I-17712J16175D01*
G01*
X376882Y514042D02*
G03*
X373380Y505588I8454J-8454D01*
G01*
X381000Y452148D02*
G03*
X373560Y470108I-25400J0D01*
G01*
X389890Y519430D02*
G03*
X376882Y514042I0J-18396D01*
G01*
X428054Y541084D02*
G03*
X434340Y556260I-15176J15176D01*
G01*
X397510Y519430D02*
G03*
X412686Y525716I0J21462D01*
G01*
X443330Y577950D02*
G03*
X434340Y556260I21670J-21690D01*
G01*
X359098Y504960D02*
G03*
X373954Y511114I0J21010D01*
G01*
X443330Y577950D02*
X474980Y609600D01*
X362709Y480960D02*
X373560Y470108D01*
X373380Y497932D02*
Y505588D01*
X362709Y480960D02*
X366320D01*
X381000Y439420D02*
Y452148D01*
X373954Y511114D02*
X376882Y514042D01*
X389890Y519430D02*
X397510D01*
X412686Y525716D02*
X428054Y541084D01*
D48*
X481600Y1089660D02*
D03*
X418100D02*
D03*
X481600Y1038860D02*
D03*
X418100D02*
D03*
X475250Y861060D02*
D03*
X449850D02*
D03*
X424450D02*
D03*
X551450Y988060D02*
D03*
Y962660D02*
D03*
Y937260D02*
D03*
D49*
X526050Y1029335D02*
D03*
Y895985D02*
D03*
X373650D02*
D03*
Y1029335D02*
D03*
D50*
X359098Y488960D02*
D03*
X352097Y484960D02*
D03*
X359098Y480960D02*
D03*
Y472960D02*
D03*
Y464960D02*
D03*
X352098Y476960D02*
D03*
Y468960D02*
D03*
Y516960D02*
D03*
Y508960D02*
D03*
X359098Y520960D02*
D03*
Y512960D02*
D03*
Y504960D02*
D03*
X352098Y500960D02*
D03*
X359098Y496960D02*
D03*
D51*
X347598Y450260D02*
D03*
Y535660D02*
D03*
X300297Y535660D02*
D03*
Y450260D02*
D03*
D52*
X438770Y707360D02*
D03*
X438770Y693360D02*
D03*
Y721360D02*
D03*
X452770Y693360D02*
D03*
Y707360D02*
D03*
X452770Y721360D02*
D03*
X431770Y700360D02*
D03*
Y714360D02*
D03*
X445770Y700360D02*
D03*
Y714360D02*
D03*
X459770Y700360D02*
D03*
Y714360D02*
D03*
D53*
X568960Y745490D02*
D03*
Y726440D02*
D03*
X474980Y609600D02*
D03*
X568960Y763270D02*
D03*
Y779780D02*
D03*
X520700Y844550D02*
D03*
X544830Y858520D02*
D03*
X463550Y902970D02*
D03*
X356870Y830580D02*
D03*
X381000Y439420D02*
D03*
X388620Y467360D02*
D03*
X453390Y511810D02*
D03*
X508000Y589280D02*
D03*
X341630Y566420D02*
D03*
X424180D02*
D03*
X388620Y485450D02*
D03*
Y500690D02*
D03*
M02*
