G04*
G04 #@! TF.GenerationSoftware,Altium Limited,Altium Designer,23.9.2 (47)*
G04*
G04 Layer_Color=8421504*
%FSLAX44Y44*%
%MOMM*%
G71*
G04*
G04 #@! TF.SameCoordinates,5FA424B9-A6D8-4F7E-AE3D-71B40F287457*
G04*
G04*
G04 #@! TF.FilePolarity,Positive*
G04*
G01*
G75*
%ADD15R,0.7000X0.4000*%
%ADD16O,1.2000X0.3000*%
%ADD17O,1.0000X0.2000*%
%ADD18R,0.9000X1.5000*%
G04:AMPARAMS|DCode=19|XSize=0.49mm|YSize=0.49mm|CornerRadius=0.065mm|HoleSize=0mm|Usage=FLASHONLY|Rotation=135.000|XOffset=0mm|YOffset=0mm|HoleType=Round|Shape=RoundedRectangle|*
%AMROUNDEDRECTD19*
21,1,0.4900,0.3600,0,0,135.0*
21,1,0.3600,0.4900,0,0,135.0*
1,1,0.1300,0.0000,0.2546*
1,1,0.1300,0.2546,0.0000*
1,1,0.1300,0.0000,-0.2546*
1,1,0.1300,-0.2546,0.0000*
%
%ADD19ROUNDEDRECTD19*%
%ADD20C,0.2000*%
G04:AMPARAMS|DCode=21|XSize=0.55mm|YSize=0.5mm|CornerRadius=0.0625mm|HoleSize=0mm|Usage=FLASHONLY|Rotation=90.000|XOffset=0mm|YOffset=0mm|HoleType=Round|Shape=RoundedRectangle|*
%AMROUNDEDRECTD21*
21,1,0.5500,0.3750,0,0,90.0*
21,1,0.4250,0.5000,0,0,90.0*
1,1,0.1250,0.1875,0.2125*
1,1,0.1250,0.1875,-0.2125*
1,1,0.1250,-0.1875,-0.2125*
1,1,0.1250,-0.1875,0.2125*
%
%ADD21ROUNDEDRECTD21*%
%ADD22R,0.6000X0.6400*%
%ADD23R,0.8000X0.8000*%
%ADD24R,0.9000X1.0000*%
%ADD25R,0.6400X0.6000*%
%ADD26R,0.9000X0.9000*%
%ADD27R,1.5000X0.9000*%
G36*
X481060Y566060D02*
X481060Y564310D01*
X480810Y564060D01*
X479060D01*
X478810Y564310D01*
Y568060D01*
X479060D01*
X481060Y566060D01*
D02*
G37*
G36*
X487810Y564310D02*
X487560Y564060D01*
X485810D01*
X485560Y564310D01*
X485560Y566060D01*
X487060Y567560D01*
X487810Y567560D01*
Y564310D01*
D02*
G37*
G36*
X481060Y576310D02*
X481060Y574560D01*
X479560Y573060D01*
X478810D01*
X478810Y576310D01*
X479060Y576560D01*
X480810D01*
X481060Y576310D01*
D02*
G37*
G36*
X487810Y576310D02*
Y573060D01*
X487060D01*
X485560Y574560D01*
X485560Y576310D01*
X485810Y576560D01*
X487560D01*
X487810Y576310D01*
D02*
G37*
D15*
X403860Y481330D02*
D03*
X403860Y504810D02*
D03*
X403860Y474330D02*
D03*
X403860Y511810D02*
D03*
X403860Y455620D02*
D03*
Y448620D02*
D03*
D16*
X371598Y520460D02*
D03*
Y510460D02*
D03*
Y505460D02*
D03*
Y500460D02*
D03*
X371598Y495460D02*
D03*
Y490460D02*
D03*
X371598Y485460D02*
D03*
Y480460D02*
D03*
Y475460D02*
D03*
Y515460D02*
D03*
Y470460D02*
D03*
Y465460D02*
D03*
D17*
X325797Y492960D02*
D03*
X294797Y492710D02*
D03*
D18*
X520970Y634860D02*
D03*
X533670Y634860D02*
D03*
X368570Y634860D02*
D03*
X381270D02*
D03*
X393970D02*
D03*
X406670Y634860D02*
D03*
X419370Y634860D02*
D03*
X432070D02*
D03*
X444770D02*
D03*
X457470D02*
D03*
X470170Y634860D02*
D03*
X482870Y634860D02*
D03*
X495570D02*
D03*
X508270D02*
D03*
X533670Y809860D02*
D03*
X520970Y809860D02*
D03*
X508270D02*
D03*
X495570Y809860D02*
D03*
X482870Y809860D02*
D03*
X470170Y809860D02*
D03*
X457470Y809860D02*
D03*
X444770D02*
D03*
X432070Y809860D02*
D03*
X419370Y809860D02*
D03*
X406670Y809860D02*
D03*
X393970Y809860D02*
D03*
X381270D02*
D03*
X368570Y809860D02*
D03*
D19*
X483310Y570310D02*
D03*
D20*
X480060Y565310D02*
D03*
X486560D02*
D03*
X486560Y575310D02*
D03*
X480060Y575310D02*
D03*
D21*
X464950Y551260D02*
D03*
X455950Y551260D02*
D03*
X393010Y605790D02*
D03*
X402010D02*
D03*
D22*
X479500Y552267D02*
D03*
X488300D02*
D03*
X479590Y588353D02*
D03*
X488390Y588353D02*
D03*
X375240Y584200D02*
D03*
X366440D02*
D03*
D23*
X460450Y583010D02*
D03*
Y568010D02*
D03*
D24*
X364490Y605790D02*
D03*
X377990D02*
D03*
D25*
X401320Y589190D02*
D03*
Y580390D02*
D03*
D26*
X445770Y707360D02*
D03*
X445770Y693360D02*
D03*
Y721360D02*
D03*
X459770Y693360D02*
D03*
X459770Y707360D02*
D03*
X459770Y721360D02*
D03*
X431770Y693360D02*
D03*
Y707360D02*
D03*
Y721360D02*
D03*
D27*
X546170Y652510D02*
D03*
Y665210D02*
D03*
Y677910D02*
D03*
Y690610D02*
D03*
Y703310D02*
D03*
Y716010D02*
D03*
Y728710D02*
D03*
Y741410D02*
D03*
Y754110D02*
D03*
X546170Y766810D02*
D03*
X546170Y779510D02*
D03*
X546170Y792210D02*
D03*
M02*
