G04*
G04 #@! TF.GenerationSoftware,Altium Limited,Altium Designer,23.9.2 (47)*
G04*
G04 Layer_Color=32896*
%FSLAX44Y44*%
%MOMM*%
G71*
G04*
G04 #@! TF.SameCoordinates,5FA424B9-A6D8-4F7E-AE3D-71B40F287457*
G04*
G04*
G04 #@! TF.FilePolarity,Positive*
G04*
G01*
G75*
%ADD10C,0.2540*%
%ADD11C,0.2000*%
%ADD14C,0.1270*%
D10*
X559868Y1151677D02*
X562407Y1154216D01*
X567486D01*
X570025Y1151677D01*
Y1149138D01*
X567486Y1146599D01*
X562407D01*
X559868Y1144059D01*
Y1141520D01*
X562407Y1138981D01*
X567486D01*
X570025Y1141520D01*
X554790Y1138981D02*
X549712D01*
X552251D01*
Y1154216D01*
X554790Y1151677D01*
X376558Y1145917D02*
X379098Y1148456D01*
X384176D01*
X386715Y1145917D01*
Y1143378D01*
X384176Y1140838D01*
X379098D01*
X376558Y1138299D01*
Y1135760D01*
X379098Y1133221D01*
X384176D01*
X386715Y1135760D01*
X361323Y1133221D02*
X371480D01*
X361323Y1143378D01*
Y1145917D01*
X363862Y1148456D01*
X368941D01*
X371480Y1145917D01*
X467998Y803017D02*
X470537Y805556D01*
X475616D01*
X478155Y803017D01*
Y800478D01*
X475616Y797939D01*
X470537D01*
X467998Y795399D01*
Y792860D01*
X470537Y790321D01*
X475616D01*
X478155Y792860D01*
X462920Y803017D02*
X460381Y805556D01*
X455302D01*
X452763Y803017D01*
Y800478D01*
X455302Y797939D01*
X457842D01*
X455302D01*
X452763Y795399D01*
Y792860D01*
X455302Y790321D01*
X460381D01*
X462920Y792860D01*
X438352Y603463D02*
X435812Y600924D01*
X430734D01*
X428195Y603463D01*
Y606002D01*
X430734Y608541D01*
X435812D01*
X438352Y611081D01*
Y613620D01*
X435812Y616159D01*
X430734D01*
X428195Y613620D01*
X451048Y616159D02*
Y600924D01*
X443430Y608541D01*
X453587D01*
X547747Y692782D02*
X550286Y690242D01*
Y685164D01*
X547747Y682625D01*
X545208D01*
X542669Y685164D01*
Y690242D01*
X540129Y692782D01*
X537590D01*
X535051Y690242D01*
Y685164D01*
X537590Y682625D01*
X550286Y708017D02*
Y697860D01*
X542669D01*
X545208Y702938D01*
Y705478D01*
X542669Y708017D01*
X537590D01*
X535051Y705478D01*
Y700399D01*
X537590Y697860D01*
X353273Y726648D02*
X350734Y729187D01*
Y734266D01*
X353273Y736805D01*
X355812D01*
X358352Y734266D01*
Y729187D01*
X360891Y726648D01*
X363430D01*
X365969Y729187D01*
Y734266D01*
X363430Y736805D01*
X350734Y711413D02*
X353273Y716492D01*
X358352Y721570D01*
X363430D01*
X365969Y719031D01*
Y713952D01*
X363430Y711413D01*
X360891D01*
X358352Y713952D01*
Y721570D01*
X547747Y521332D02*
X550286Y518792D01*
Y513714D01*
X547747Y511175D01*
X545208D01*
X542669Y513714D01*
Y518792D01*
X540129Y521332D01*
X537590D01*
X535051Y518792D01*
Y513714D01*
X537590Y511175D01*
X550286Y526410D02*
Y536567D01*
X547747D01*
X537590Y526410D01*
X535051D01*
X353953Y553088D02*
X351414Y555627D01*
Y560706D01*
X353953Y563245D01*
X356492D01*
X359031Y560706D01*
Y555627D01*
X361571Y553088D01*
X364110D01*
X366649Y555627D01*
Y560706D01*
X364110Y563245D01*
X353953Y548010D02*
X351414Y545471D01*
Y540392D01*
X353953Y537853D01*
X356492D01*
X359031Y540392D01*
X361571Y537853D01*
X364110D01*
X366649Y540392D01*
Y545471D01*
X364110Y548010D01*
X361571D01*
X359031Y545471D01*
X356492Y548010D01*
X353953D01*
X359031Y545471D02*
Y540392D01*
X583196Y1078531D02*
Y1065835D01*
X580657Y1063296D01*
X575578D01*
X573039Y1065835D01*
Y1078531D01*
X557804Y1063296D02*
X567961D01*
X557804Y1073452D01*
Y1075991D01*
X560343Y1078531D01*
X565422D01*
X567961Y1075991D01*
D11*
X544990Y1118200D02*
G03*
X544990Y1118200I-1000J0D01*
G01*
X361680Y1112440D02*
G03*
X361680Y1112440I-1000J0D01*
G01*
X453120Y769540D02*
G03*
X453120Y769540I-1000J0D01*
G01*
X455230Y636940D02*
G03*
X455230Y636940I-1000J0D01*
G01*
X515270Y708660D02*
G03*
X515270Y708660I-1000J0D01*
G01*
X387750Y710770D02*
G03*
X387750Y710770I-1000J0D01*
G01*
X515270Y537210D02*
G03*
X515270Y537210I-1000J0D01*
G01*
X388430D02*
G03*
X388430Y537210I-1000J0D01*
G01*
X511350Y1096160D02*
G03*
X511350Y1096160I-1000J0D01*
G01*
X532240Y1129200D02*
X555740D01*
X564990Y1108700D02*
Y1117700D01*
X532240Y1097200D02*
X555740D01*
X522990Y1108700D02*
Y1117700D01*
X533990Y1124450D02*
X553990D01*
X543990Y1118200D02*
Y1124450D01*
Y1101950D02*
Y1108200D01*
X533990Y1101950D02*
X553990D01*
X543990Y1108200D02*
X548990Y1116450D01*
X348930Y1123440D02*
X372430D01*
X381680Y1102940D02*
Y1111940D01*
X348930Y1091440D02*
X372430D01*
X339680Y1102940D02*
Y1111940D01*
X350680Y1118690D02*
X370680D01*
X360680Y1112440D02*
Y1118690D01*
Y1096190D02*
Y1102440D01*
X350680Y1096190D02*
X370680D01*
X360680Y1102440D02*
X365680Y1110690D01*
X440370Y780540D02*
X463870D01*
X473120Y760040D02*
Y769040D01*
X440370Y748540D02*
X463870D01*
X431120Y760040D02*
Y769040D01*
X442120Y775790D02*
X462120D01*
X452120Y769540D02*
Y775790D01*
Y753290D02*
Y759540D01*
X442120Y753290D02*
X462120D01*
X452120Y759540D02*
X457120Y767790D01*
X442480Y625940D02*
X465980D01*
X433230Y637440D02*
X433230Y646440D01*
X442480Y657940D02*
X465980D01*
X475230Y646440D02*
X475230Y637440D01*
X444230Y630690D02*
X464230D01*
X454230D02*
Y636940D01*
Y646940D02*
Y653190D01*
X444230Y653190D02*
X464230D01*
X449230Y638690D02*
X454230Y646940D01*
X525270Y696910D02*
Y720410D01*
X504770Y687660D02*
X513770D01*
X493270Y696910D02*
Y720410D01*
X504770Y729660D02*
X513770D01*
X520520Y698660D02*
Y718660D01*
X514270Y708660D02*
X520520D01*
X498020D02*
X504270D01*
X498020Y698660D02*
Y718660D01*
X504270Y708660D02*
X512520Y703660D01*
X375750Y699020D02*
Y722520D01*
X387250Y731770D02*
X396250D01*
X407750Y699020D02*
Y722520D01*
X387250Y689770D02*
X396250D01*
X380500Y700770D02*
Y720770D01*
Y710770D02*
X386750D01*
X396750D02*
X403000D01*
X403000Y700770D02*
Y720770D01*
X388500Y715770D02*
X396750Y710770D01*
X525270Y525460D02*
Y548960D01*
X504770Y516210D02*
X513770D01*
X493270Y525460D02*
Y548960D01*
X504770Y558210D02*
X513770D01*
X520520Y527210D02*
Y547210D01*
X514270Y537210D02*
X520520D01*
X498020D02*
X504270D01*
X498020Y527210D02*
Y547210D01*
X504270Y537210D02*
X512520Y532210D01*
X376430Y525460D02*
Y548960D01*
X387930Y558210D02*
X396930D01*
X408430Y525460D02*
Y548960D01*
X387930Y516210D02*
X396930D01*
X381180Y527210D02*
Y547210D01*
Y537210D02*
X387430D01*
X397430D02*
X403680D01*
Y527210D02*
Y547210D01*
X389180Y542210D02*
X397430Y537210D01*
D14*
X504350Y1042660D02*
X510550D01*
X504350D02*
Y1105660D01*
X395350D02*
X504350D01*
X395350Y1042660D02*
Y1105660D01*
X389050Y1042660D02*
X395350D01*
X354850Y1003660D02*
X370350D01*
X354850Y922660D02*
Y1003660D01*
Y922660D02*
X370350D01*
Y911460D02*
Y922660D01*
X389050Y883660D02*
X401350D01*
Y851660D02*
Y883660D01*
X498350Y851660D02*
Y883660D01*
X510550D01*
X529350Y910960D02*
Y913660D01*
X560850D01*
Y1011660D01*
X529350D02*
X560850D01*
M02*
