G04*
G04 #@! TF.GenerationSoftware,Altium Limited,Altium Designer,23.9.2 (47)*
G04*
G04 Layer_Color=16711935*
%FSLAX44Y44*%
%MOMM*%
G71*
G04*
G04 #@! TF.SameCoordinates,5FA424B9-A6D8-4F7E-AE3D-71B40F287457*
G04*
G04*
G04 #@! TF.FilePolarity,Negative*
G04*
G01*
G75*
%ADD40C,1.9812*%
%ADD41C,2.4892*%
%ADD42C,0.8532*%
%ADD43O,1.8032X1.2032*%
%ADD44C,1.4732*%
%ADD56R,1.2500X0.8500*%
%ADD57R,0.8500X1.2500*%
D40*
X481600Y1089660D02*
D03*
X418100D02*
D03*
X481600Y1038860D02*
D03*
X418100D02*
D03*
X475250Y861060D02*
D03*
X449850D02*
D03*
X424450D02*
D03*
X551450Y988060D02*
D03*
Y962660D02*
D03*
Y937260D02*
D03*
D41*
X526050Y1029335D02*
D03*
Y895985D02*
D03*
X373650D02*
D03*
Y1029335D02*
D03*
D42*
X359098Y488960D02*
D03*
X352097Y484960D02*
D03*
X359098Y480960D02*
D03*
Y472960D02*
D03*
Y464960D02*
D03*
X352098Y476960D02*
D03*
Y468960D02*
D03*
Y516960D02*
D03*
Y508960D02*
D03*
X359098Y520960D02*
D03*
Y512960D02*
D03*
Y504960D02*
D03*
X352098Y500960D02*
D03*
X359098Y496960D02*
D03*
D43*
X347598Y450260D02*
D03*
Y535660D02*
D03*
X300297Y535660D02*
D03*
Y450260D02*
D03*
D44*
X568960Y745490D02*
D03*
Y726440D02*
D03*
X474980Y609600D02*
D03*
X568960Y763270D02*
D03*
Y779780D02*
D03*
X520700Y844550D02*
D03*
X544830Y858520D02*
D03*
X463550Y902970D02*
D03*
X356870Y830580D02*
D03*
X381000Y439420D02*
D03*
X388620Y467360D02*
D03*
X453390Y511810D02*
D03*
X508000Y589280D02*
D03*
X341630Y566420D02*
D03*
X424180D02*
D03*
X388620Y485450D02*
D03*
Y500690D02*
D03*
D56*
X564740Y1123950D02*
D03*
X523240D02*
D03*
X564740Y1102450D02*
D03*
X523240D02*
D03*
X381430Y1118190D02*
D03*
X339930D02*
D03*
X381430Y1096690D02*
D03*
X339930D02*
D03*
X472870Y775290D02*
D03*
X431370D02*
D03*
X472870Y753790D02*
D03*
X431370D02*
D03*
X433480Y631190D02*
D03*
X474980D02*
D03*
X433480Y652690D02*
D03*
X474980Y652690D02*
D03*
D57*
X520020Y687910D02*
D03*
Y729410D02*
D03*
X498520Y687910D02*
D03*
Y729410D02*
D03*
X381000Y731520D02*
D03*
Y690020D02*
D03*
X402500Y731520D02*
D03*
Y690020D02*
D03*
X520020Y516460D02*
D03*
Y557960D02*
D03*
X498520Y516460D02*
D03*
Y557960D02*
D03*
X381680D02*
D03*
Y516460D02*
D03*
X403180Y557960D02*
D03*
Y516460D02*
D03*
M02*
