G04*
G04 #@! TF.GenerationSoftware,Altium Limited,Altium Designer,23.9.2 (47)*
G04*
G04 Layer_Color=8388736*
%FSLAX44Y44*%
%MOMM*%
G71*
G04*
G04 #@! TF.SameCoordinates,5FA424B9-A6D8-4F7E-AE3D-71B40F287457*
G04*
G04*
G04 #@! TF.FilePolarity,Negative*
G04*
G01*
G75*
%ADD20C,0.2000*%
%ADD28R,0.9032X0.6032*%
%ADD29O,1.4032X0.5032*%
%ADD30O,1.2032X0.4032*%
%ADD31R,1.1032X1.7032*%
G04:AMPARAMS|DCode=32|XSize=0.6832mm|YSize=0.6832mm|CornerRadius=0.1616mm|HoleSize=0mm|Usage=FLASHONLY|Rotation=135.000|XOffset=0mm|YOffset=0mm|HoleType=Round|Shape=RoundedRectangle|*
%AMROUNDEDRECTD32*
21,1,0.6832,0.3600,0,0,135.0*
21,1,0.3600,0.6832,0,0,135.0*
1,1,0.3232,0.0000,0.2546*
1,1,0.3232,0.2546,0.0000*
1,1,0.3232,0.0000,-0.2546*
1,1,0.3232,-0.2546,0.0000*
%
%ADD32ROUNDEDRECTD32*%
G04:AMPARAMS|DCode=33|XSize=0.7532mm|YSize=0.7032mm|CornerRadius=0.1641mm|HoleSize=0mm|Usage=FLASHONLY|Rotation=90.000|XOffset=0mm|YOffset=0mm|HoleType=Round|Shape=RoundedRectangle|*
%AMROUNDEDRECTD33*
21,1,0.7532,0.3750,0,0,90.0*
21,1,0.4250,0.7032,0,0,90.0*
1,1,0.3282,0.1875,0.2125*
1,1,0.3282,0.1875,-0.2125*
1,1,0.3282,-0.1875,-0.2125*
1,1,0.3282,-0.1875,0.2125*
%
%ADD33ROUNDEDRECTD33*%
%ADD34R,0.8032X0.8432*%
%ADD35R,1.0032X1.0032*%
%ADD36R,1.1032X1.2032*%
%ADD37R,0.8432X0.8032*%
%ADD38R,1.1032X1.1032*%
%ADD39R,1.7032X1.1032*%
%ADD40C,1.9812*%
%ADD41C,2.4892*%
%ADD42C,0.8532*%
%ADD43O,1.8032X1.2032*%
%ADD44C,1.4732*%
G36*
X479193Y569070D02*
X479323Y569044D01*
X479449Y569001D01*
X479569Y568942D01*
X479679Y568868D01*
X479780Y568780D01*
X481780Y566780D01*
X481834Y566718D01*
X481867Y566680D01*
X481867Y566680D01*
X481868Y566680D01*
X481897Y566636D01*
X481941Y566569D01*
X481942Y566569D01*
D01*
X481946Y566560D01*
X482000Y566450D01*
X482001Y566450D01*
X482001Y566450D01*
X482039Y566337D01*
X482043Y566324D01*
D01*
X482043Y566324D01*
X482064Y566218D01*
X482069Y566193D01*
Y566193D01*
X482069Y566193D01*
X482075Y566112D01*
X482078Y566060D01*
X482078Y564310D01*
Y564310D01*
Y564310D01*
X482075Y564258D01*
X482070Y564178D01*
X482070Y564177D01*
Y564177D01*
X482065Y564152D01*
X482044Y564047D01*
X482044Y564047D01*
D01*
X482001Y563921D01*
X481944Y563805D01*
X481942Y563801D01*
D01*
X481942Y563801D01*
X481897Y563734D01*
X481868Y563690D01*
X481868Y563690D01*
X481868Y563690D01*
X481834Y563652D01*
X481780Y563590D01*
X481780Y563590D01*
X481780Y563590D01*
X481530Y563340D01*
X481430Y563252D01*
X481319Y563178D01*
X481199Y563119D01*
X481073Y563077D01*
X480943Y563050D01*
X480810Y563042D01*
X479060D01*
X479060Y563042D01*
X479059Y563042D01*
X478990Y563046D01*
X478927Y563050D01*
X478927Y563051D01*
X478927Y563051D01*
X478856Y563065D01*
X478796Y563077D01*
X478796Y563077D01*
X478796Y563077D01*
X478744Y563094D01*
X478670Y563119D01*
X478670Y563119D01*
X478670Y563120D01*
X478616Y563146D01*
X478551Y563178D01*
X478551Y563178D01*
X478550Y563178D01*
X478494Y563216D01*
X478440Y563252D01*
X478440Y563252D01*
X478440Y563252D01*
X478365Y563318D01*
X478340Y563340D01*
X478340Y563340D01*
X478340Y563340D01*
X478090Y563590D01*
X478045Y563642D01*
X478002Y563690D01*
X478002Y563690D01*
X478002Y563690D01*
X477944Y563778D01*
X477928Y563801D01*
X477928Y563801D01*
X477928Y563801D01*
X477887Y563885D01*
X477869Y563920D01*
X477869Y563921D01*
X477869Y563921D01*
X477849Y563980D01*
X477826Y564047D01*
X477826Y564047D01*
X477826Y564047D01*
X477816Y564100D01*
X477800Y564177D01*
X477800Y564177D01*
X477800Y564178D01*
X477796Y564241D01*
X477792Y564310D01*
Y568060D01*
X477800Y568193D01*
X477826Y568324D01*
X477869Y568450D01*
X477928Y568569D01*
X478002Y568680D01*
X478090Y568780D01*
X478190Y568868D01*
X478301Y568942D01*
X478420Y569001D01*
X478546Y569044D01*
X478677Y569070D01*
X478810Y569078D01*
X479060D01*
X479193Y569070D01*
D02*
G37*
G36*
X487943Y568569D02*
X488073Y568544D01*
X488116Y568529D01*
X488199Y568501D01*
X488319Y568442D01*
X488430Y568368D01*
X488530Y568280D01*
Y568280D01*
X488530D01*
X488618Y568180D01*
X488692Y568069D01*
X488750Y567950D01*
X488779Y567866D01*
X488793Y567824D01*
X488819Y567693D01*
X488828Y567560D01*
D01*
Y567560D01*
Y564310D01*
X488824Y564249D01*
X488819Y564178D01*
X488819Y564177D01*
Y564177D01*
X488809Y564126D01*
X488793Y564047D01*
X488793Y564047D01*
X488793Y564047D01*
X488769Y563976D01*
X488751Y563921D01*
X488751Y563921D01*
X488750Y563920D01*
X488723Y563864D01*
X488692Y563801D01*
X488692Y563801D01*
X488692Y563801D01*
X488661Y563756D01*
X488618Y563690D01*
X488618Y563690D01*
X488618Y563690D01*
X488569Y563635D01*
X488530Y563590D01*
X488280Y563340D01*
X488280Y563340D01*
X488280Y563340D01*
X488215Y563283D01*
X488180Y563252D01*
X488180Y563252D01*
X488180Y563252D01*
X488112Y563207D01*
X488069Y563178D01*
X488069Y563178D01*
X488069Y563178D01*
X488004Y563146D01*
X487950Y563120D01*
X487950Y563119D01*
X487950Y563119D01*
X487855Y563087D01*
X487824Y563077D01*
X487824Y563077D01*
X487823Y563077D01*
X487740Y563060D01*
X487693Y563051D01*
X487693D01*
X487693Y563050D01*
X487621Y563046D01*
X487560Y563042D01*
X487560D01*
X487560D01*
X485810D01*
X485677Y563050D01*
X485546Y563077D01*
X485420Y563119D01*
X485301Y563178D01*
X485190Y563252D01*
X485090Y563340D01*
X484840Y563590D01*
X484840Y563590D01*
X484840Y563590D01*
X484790Y563647D01*
X484752Y563690D01*
X484752Y563690D01*
X484752Y563690D01*
X484703Y563764D01*
X484678Y563801D01*
X484678Y563801D01*
X484678Y563801D01*
X484657Y563844D01*
X484619Y563921D01*
X484576Y564047D01*
D01*
X484576Y564047D01*
X484555Y564152D01*
X484550Y564177D01*
Y564177D01*
X484550Y564178D01*
X484545Y564258D01*
X484542Y564310D01*
Y564310D01*
Y564310D01*
X484542Y566060D01*
X484545Y566112D01*
X484551Y566193D01*
X484551Y566193D01*
Y566193D01*
X484556Y566218D01*
X484576Y566324D01*
X484577Y566324D01*
D01*
X484579Y566330D01*
X484619Y566450D01*
X484678Y566569D01*
X484752Y566680D01*
X484752Y566680D01*
X484752Y566680D01*
X484791Y566724D01*
X484840Y566780D01*
X486340Y568280D01*
X486440Y568368D01*
X486551Y568442D01*
X486670Y568501D01*
X486764Y568533D01*
X486796Y568544D01*
X486927Y568569D01*
X487060Y568578D01*
X487810Y568578D01*
D01*
X487810D01*
X487943Y568569D01*
D02*
G37*
G36*
X480827Y577577D02*
X480943Y577570D01*
X481073Y577543D01*
X481073Y577543D01*
D01*
X481080Y577541D01*
X481199Y577501D01*
X481319Y577442D01*
X481430Y577368D01*
X481530Y577280D01*
X481780Y577030D01*
X481868Y576930D01*
X481942Y576819D01*
X481942Y576819D01*
D01*
X481948Y576806D01*
X482001Y576699D01*
X482001Y576699D01*
X482001Y576699D01*
X482041Y576580D01*
X482044Y576573D01*
D01*
X482044Y576573D01*
X482059Y576494D01*
X482070Y576443D01*
Y576443D01*
X482070Y576442D01*
X482073Y576388D01*
X482078Y576310D01*
Y576310D01*
Y576310D01*
X482078Y574560D01*
X482073Y574490D01*
X482069Y574427D01*
X482069Y574427D01*
Y574427D01*
X482054Y574350D01*
X482043Y574297D01*
X482043Y574296D01*
X482043Y574296D01*
X482025Y574243D01*
X482001Y574170D01*
X481942Y574051D01*
X481941Y574051D01*
X481941Y574051D01*
X481891Y573976D01*
X481868Y573940D01*
X481868Y573940D01*
X481867Y573940D01*
X481814Y573879D01*
X481780Y573840D01*
X480280Y572340D01*
X480180Y572252D01*
X480069Y572178D01*
X479949Y572119D01*
X479823Y572076D01*
X479693Y572051D01*
X479560Y572042D01*
X478810D01*
X478677Y572051D01*
X478546Y572076D01*
X478420Y572119D01*
X478301Y572178D01*
X478190Y572252D01*
X478090Y572340D01*
X478002Y572440D01*
X477928Y572551D01*
X477869Y572670D01*
X477827Y572797D01*
X477801Y572927D01*
X477792Y573060D01*
X477792Y576310D01*
D01*
D01*
Y576310D01*
X477797Y576384D01*
X477800Y576442D01*
X477800Y576443D01*
X477800Y576443D01*
X477818Y576533D01*
X477826Y576573D01*
X477826Y576573D01*
X477826Y576573D01*
X477847Y576634D01*
X477869Y576699D01*
X477869Y576699D01*
X477869Y576700D01*
X477881Y576723D01*
X477928Y576819D01*
X477928Y576819D01*
X477928Y576819D01*
X477956Y576861D01*
X478002Y576930D01*
X478002Y576930D01*
X478002Y576930D01*
X478041Y576974D01*
X478090Y577030D01*
X478340Y577280D01*
X478340Y577280D01*
X478340Y577280D01*
X478382Y577317D01*
X478440Y577368D01*
X478440Y577368D01*
X478440Y577368D01*
X478480Y577395D01*
X478550Y577442D01*
X478551Y577442D01*
X478551Y577442D01*
X478595Y577463D01*
X478670Y577500D01*
X478670Y577501D01*
X478670Y577501D01*
X478737Y577523D01*
X478796Y577543D01*
X478796Y577543D01*
X478796Y577543D01*
X478862Y577557D01*
X478926Y577570D01*
X478927Y577570D01*
X478927Y577570D01*
X478981Y577573D01*
X479059Y577578D01*
X479060Y577578D01*
X479060Y577578D01*
X480810D01*
X480827Y577577D01*
D02*
G37*
G36*
X487630Y577574D02*
X487693Y577570D01*
X487693Y577570D01*
X487693Y577570D01*
X487764Y577556D01*
X487824Y577543D01*
X487824Y577543D01*
X487824Y577543D01*
X487876Y577526D01*
X487950Y577501D01*
X487950Y577501D01*
X487950Y577500D01*
X488004Y577474D01*
X488069Y577442D01*
X488069Y577442D01*
X488070Y577442D01*
X488126Y577404D01*
X488180Y577368D01*
X488180Y577368D01*
X488180Y577368D01*
X488255Y577302D01*
X488280Y577280D01*
X488280Y577280D01*
X488280Y577280D01*
X488530Y577030D01*
X488573Y576981D01*
X488618Y576930D01*
X488618Y576930D01*
X488618Y576930D01*
X488654Y576875D01*
X488692Y576819D01*
X488692Y576819D01*
X488692Y576819D01*
X488724Y576753D01*
X488751Y576700D01*
X488751Y576699D01*
X488751Y576699D01*
X488771Y576641D01*
X488793Y576573D01*
X488793Y576573D01*
X488794Y576573D01*
X488804Y576520D01*
X488820Y576443D01*
X488820Y576443D01*
X488820Y576442D01*
X488824Y576379D01*
X488828Y576310D01*
Y573060D01*
X488820Y572927D01*
X488793Y572797D01*
X488751Y572670D01*
X488692Y572551D01*
X488618Y572440D01*
X488530Y572340D01*
X488430Y572252D01*
X488319Y572178D01*
X488200Y572119D01*
X488074Y572076D01*
X487943Y572051D01*
X487810Y572042D01*
X487060D01*
X486927Y572051D01*
X486797Y572076D01*
X486671Y572119D01*
X486551Y572178D01*
X486440Y572252D01*
X486340Y572340D01*
X484840Y573840D01*
D01*
D01*
X484840Y573840D01*
X484791Y573896D01*
X484753Y573940D01*
X484753Y573940D01*
X484752Y573940D01*
X484704Y574013D01*
X484678Y574051D01*
X484678Y574051D01*
X484678Y574051D01*
X484619Y574170D01*
X484579Y574290D01*
X484577Y574296D01*
D01*
X484577Y574296D01*
X484556Y574402D01*
X484551Y574427D01*
Y574427D01*
X484551Y574427D01*
X484546Y574508D01*
X484542Y574560D01*
X484542Y576310D01*
Y576310D01*
Y576310D01*
X484545Y576362D01*
X484551Y576442D01*
X484551Y576443D01*
Y576443D01*
X484556Y576468D01*
X484576Y576573D01*
X484576Y576573D01*
D01*
X484619Y576699D01*
X484657Y576776D01*
X484678Y576819D01*
X484678Y576819D01*
X484678Y576819D01*
X484703Y576856D01*
X484752Y576930D01*
X484752Y576930D01*
X484752Y576930D01*
X484791Y576973D01*
X484840Y577030D01*
X484840Y577030D01*
X484840Y577030D01*
X485090Y577280D01*
X485190Y577368D01*
X485301Y577442D01*
X485420Y577501D01*
X485547Y577543D01*
X485677Y577570D01*
X485810Y577578D01*
X487560D01*
X487560Y577578D01*
X487561Y577578D01*
X487630Y577574D01*
D02*
G37*
D20*
X480060Y565310D02*
D03*
X486560D02*
D03*
X486560Y575310D02*
D03*
X480060Y575310D02*
D03*
D28*
X403860Y481330D02*
D03*
X403860Y504810D02*
D03*
X403860Y474330D02*
D03*
X403860Y511810D02*
D03*
X403860Y455620D02*
D03*
Y448620D02*
D03*
D29*
X371598Y520460D02*
D03*
Y510460D02*
D03*
Y505460D02*
D03*
Y500460D02*
D03*
X371598Y495460D02*
D03*
Y490460D02*
D03*
X371598Y485460D02*
D03*
Y480460D02*
D03*
Y475460D02*
D03*
Y515460D02*
D03*
Y470460D02*
D03*
Y465460D02*
D03*
D30*
X325797Y492960D02*
D03*
X294797Y492710D02*
D03*
D31*
X520970Y634860D02*
D03*
X533670Y634860D02*
D03*
X368570Y634860D02*
D03*
X381270D02*
D03*
X393970D02*
D03*
X406670Y634860D02*
D03*
X419370Y634860D02*
D03*
X432070D02*
D03*
X444770D02*
D03*
X457470D02*
D03*
X470170Y634860D02*
D03*
X482870Y634860D02*
D03*
X495570D02*
D03*
X508270D02*
D03*
X533670Y809860D02*
D03*
X520970Y809860D02*
D03*
X508270D02*
D03*
X495570Y809860D02*
D03*
X482870Y809860D02*
D03*
X470170Y809860D02*
D03*
X457470Y809860D02*
D03*
X444770D02*
D03*
X432070Y809860D02*
D03*
X419370Y809860D02*
D03*
X406670Y809860D02*
D03*
X393970Y809860D02*
D03*
X381270D02*
D03*
X368570Y809860D02*
D03*
D32*
X483310Y570310D02*
D03*
D33*
X464950Y551260D02*
D03*
X455950Y551260D02*
D03*
X393010Y605790D02*
D03*
X402010D02*
D03*
D34*
X479500Y552267D02*
D03*
X488300D02*
D03*
X479590Y588353D02*
D03*
X488390Y588353D02*
D03*
X375240Y584200D02*
D03*
X366440D02*
D03*
D35*
X460450Y583010D02*
D03*
Y568010D02*
D03*
D36*
X364490Y605790D02*
D03*
X377990D02*
D03*
D37*
X401320Y589190D02*
D03*
Y580390D02*
D03*
D38*
X445770Y707360D02*
D03*
X445770Y693360D02*
D03*
Y721360D02*
D03*
X459770Y693360D02*
D03*
X459770Y707360D02*
D03*
X459770Y721360D02*
D03*
X431770Y693360D02*
D03*
Y707360D02*
D03*
Y721360D02*
D03*
D39*
X546170Y652510D02*
D03*
Y665210D02*
D03*
Y677910D02*
D03*
Y690610D02*
D03*
Y703310D02*
D03*
Y716010D02*
D03*
Y728710D02*
D03*
Y741410D02*
D03*
Y754110D02*
D03*
X546170Y766810D02*
D03*
X546170Y779510D02*
D03*
X546170Y792210D02*
D03*
D40*
X481600Y1089660D02*
D03*
X418100D02*
D03*
X481600Y1038860D02*
D03*
X418100D02*
D03*
X475250Y861060D02*
D03*
X449850D02*
D03*
X424450D02*
D03*
X551450Y988060D02*
D03*
Y962660D02*
D03*
Y937260D02*
D03*
D41*
X526050Y1029335D02*
D03*
Y895985D02*
D03*
X373650D02*
D03*
Y1029335D02*
D03*
D42*
X359098Y488960D02*
D03*
X352097Y484960D02*
D03*
X359098Y480960D02*
D03*
Y472960D02*
D03*
Y464960D02*
D03*
X352098Y476960D02*
D03*
Y468960D02*
D03*
Y516960D02*
D03*
Y508960D02*
D03*
X359098Y520960D02*
D03*
Y512960D02*
D03*
Y504960D02*
D03*
X352098Y500960D02*
D03*
X359098Y496960D02*
D03*
D43*
X347598Y450260D02*
D03*
Y535660D02*
D03*
X300297Y535660D02*
D03*
Y450260D02*
D03*
D44*
X568960Y745490D02*
D03*
Y726440D02*
D03*
X474980Y609600D02*
D03*
X568960Y763270D02*
D03*
Y779780D02*
D03*
X520700Y844550D02*
D03*
X544830Y858520D02*
D03*
X463550Y902970D02*
D03*
X356870Y830580D02*
D03*
X381000Y439420D02*
D03*
X388620Y467360D02*
D03*
X453390Y511810D02*
D03*
X508000Y589280D02*
D03*
X341630Y566420D02*
D03*
X424180D02*
D03*
X388620Y485450D02*
D03*
Y500690D02*
D03*
M02*
